<svg width="500" height="220" viewBox="-40 -20 650 200" xmlns="http://www.w3.org/2000/svg" xmlns:xlink="http://www.w3.org/1999/xlink"
    shape-rendering="geometricPrecision" text-rendering="geometricPrecision">
  <defs>
    <style>
      .greeting { fill: #24292f; }
      .name { fill: #24292f; }

      @media (prefers-color-scheme: dark) {
        .greeting { fill: #e6edf3; }
        .name { fill: #e6edf3; }
      }
    </style>
  </defs>

  <!-- Animation styles for portrait -->
  <style>
    #er7dU6y09Mt6 {animation: er7dU6y09Mt6__m 4700ms linear infinite normal forwards}@keyframes er7dU6y09Mt6__m { 0% {d: path('M1817,2660C1780,2631,1766,2578,1765,2465C1765,2346,1784,2284,1829,2257C1862,2238,1902,2235,1931,2250C1964.072098,2267.965091,1984.974596,2329.440661,1992.822637,2400.12146C1999.315741,2458.599455,1996.872892,2523.378555,1984.992965,2575.030508C1976.063975,2613.852282,1961.803912,2645.258436,1942,2661C1909,2686,1850,2686,1817,2660Z')} 12.765957% {d: path('M1817,2660C1780,2631,1766,2578,1765,2465C1765,2346,1784,2284,1829,2257C1862,2238,1902,2235,1931,2250C1964.072098,2267.965091,1984.974596,2329.440661,1992.822637,2400.12146C1999.315741,2458.599455,1996.872892,2523.378555,1984.992965,2575.030508C1976.063975,2613.852282,1961.803912,2645.258436,1942,2661C1909,2686,1850,2686,1817,2660Z')} 17.021277% {d: path('M1817,2660C1780,2631,1766,2578,1765,2465C1765,2346,1784,2284,1829,2257C1862,2238,1902,2235,1931,2250C1964.072098,2267.965091,1984.974596,2329.440661,1992.822637,2400.12146C1999.315741,2458.599455,1996.872892,2523.378555,1984.992965,2575.030508C1976.063975,2613.852282,1961.803912,2645.258436,1942,2661C1909,2686,1850,2686,1817,2660Z')} 44.680851% {d: path('M1817,2660C1780,2631,1766,2578,1765,2465C1765,2346,1784,2284,1829,2257C1862,2238,1902,2235,1931,2250C1964.072098,2267.965091,1984.974596,2329.440661,1992.822637,2400.12146C1999.315741,2458.599455,1996.872892,2523.378555,1984.992965,2575.030508C1976.063975,2613.852282,1961.803912,2645.258436,1942,2661C1909,2686,1850,2686,1817,2660Z')} 46.808511% {d: path('M1817,2660C1780,2631,1766,2578,1765,2465C1765,2346,1784,2284,1829,2257C1862,2238,1902,2235,1931,2250C1964.072098,2267.965091,1984.974596,2329.440661,1992.822637,2400.12146C1999.315741,2458.599455,1996.872892,2523.378555,1984.992965,2575.030508C1976.063975,2613.852282,1950.803912,2594.071182,1931,2609.812746C1898,2634.812746,1850,2686,1817,2660Z')} 48.93617% {d: path('M1797.000005,2634.812745C1760.000005,2605.812745,1766,2578,1765,2465C1765,2346,1784,2284,1829,2257C1862,2238,1902,2235,1931,2250C1967.975783,2270.085612,1983.752718,2331.470266,1984.420027,2402.227544C1984.843389,2447.118236,1979.185065,2495.781449,1969.000005,2540.0644C1960.071015,2578.886174,1931.803917,2583.071181,1912.000005,2598.812745C1879.000005,2623.812745,1830.000005,2660.812745,1797.000005,2634.812745Z')} 59.574468% {d: path('M1805.333336,2645.307435C1768.333336,2616.307435,1766,2578,1765,2465C1765,2346,1784,2284,1829,2257C1862,2238,1902,2235,1931,2250C1966.251986,2269.149228,1984.502951,2330.793745,1988.384454,2401.484252C1991.157224,2451.982349,1986.597218,2507.096639,1975.663738,2554.633612C1966.734748,2593.455386,1906.803917,2583.071181,1887.000005,2598.812745C1854.000005,2623.812745,1838.333336,2671.307435,1805.333336,2645.307435Z')} 61.702128% {d: path('M1812.000005,2555.43457C1775.000005,2526.43457,1766,2578,1765,2465C1765,2346,1784,2284,1829,2257C1862,2238,1902,2235,1931,2250C1972.970119,2272.798585,1975.625685,2330.189405,1972.877425,2402.335853C1971.668359,2434.075882,1942.413403,2434.237237,1942.000005,2470C1940.672547,2584.837157,1850.531335,2516.967251,1829,2515.434572C1796,2540.434572,1845.000005,2581.43457,1812.000005,2555.43457Z')} 63.829787% {d: path('M1758.02818,2491.339705C1721.02818,2462.339705,1766,2578,1765,2465C1765,2346,1784,2284,1829,2257C1862,2238,1902,2235,1931,2250C1965.555102,2268.770673,1981.680124,2331.440035,1987.762115,2402.365109C1992.971524,2456.386776,1877.488864,2453.335951,1867.520025,2502.339705C1859.857957,2553.83071,1872.61184,2489.477182,1852.520025,2502.339705C1819.520025,2527.339705,1791.02818,2517.339705,1758.02818,2491.339705Z')} 72.340426% {d: path('M1758.02818,2491.339705C1721.02818,2462.339705,1766,2578,1765,2465C1765,2346,1784,2284,1829,2257C1862,2238,1902,2235,1931,2250C1965.555102,2268.770673,1981.680124,2331.440035,1987.762115,2402.365109C1992.971524,2456.386776,1877.488864,2453.335951,1867.520025,2502.339705C1859.857957,2553.83071,1872.61184,2489.477182,1852.520025,2502.339705C1819.520025,2527.339705,1791.02818,2517.339705,1758.02818,2491.339705Z')} 74.468085% {d: path('M1817,2660C1780,2631,1766,2578,1765,2465C1765,2346,1784,2284,1829,2257C1862,2238,1902,2235,1931,2250C1964.072098,2267.965091,1984.974596,2329.440661,1992.822637,2400.12146C1999.315741,2458.599455,1996.872892,2523.378555,1984.992965,2575.030508C1976.063975,2613.852282,1961.803912,2645.258436,1942,2661C1909,2686,1850,2686,1817,2660Z')} 82.978723% {d: path('M1817,2660C1780,2631,1766,2578,1765,2465C1765,2346,1784,2284,1829,2257C1862,2238,1902,2235,1931,2250C1964.072098,2267.965091,1984.974596,2329.440661,1992.822637,2400.12146C1999.315741,2458.599455,1996.872892,2523.378555,1984.992965,2575.030508C1976.063975,2613.852282,1961.803912,2645.258436,1942,2661C1909,2686,1850,2686,1817,2660Z')} 100% {d: path('M1817,2660C1780,2631,1766,2578,1765,2465C1765,2346,1784,2284,1829,2257C1862,2238,1902,2235,1931,2250C1964.072098,2267.965091,1984.974596,2329.440661,1992.822637,2400.12146C1999.315741,2458.599455,1996.872892,2523.378555,1984.992965,2575.030508C1976.063975,2613.852282,1961.803912,2645.258436,1942,2661C1909,2686,1850,2686,1817,2660Z')}} #er7dU6y09Mt6_to {animation: er7dU6y09Mt6_to__to 4700ms linear infinite normal forwards}@keyframes er7dU6y09Mt6_to__to { 0% {transform: translate(1900.668762px,2500.238285px)} 2.12766% {transform: translate(1900.668762px,2500.238285px);animation-timing-function: cubic-bezier(0.095,0.635,0.69,0.77)} 8.510638% {transform: translate(1730.100522px,2500.238285px)} 42.553191% {transform: translate(1730.100522px,2500.238285px);animation-timing-function: cubic-bezier(0.095,0.635,0.69,0.77)} 48.93617% {transform: translate(2003.668757px,2500.23828px)} 59.574468% {transform: translate(2003.668757px,2500.23828px)} 61.702128% {transform: translate(2003.668757px,2594.616455px)} 63.829787% {transform: translate(1948.148737px,2658.71132px)} 72.340426% {transform: translate(1948.148737px,2658.71132px)} 74.468085% {transform: translate(1900.668757px,2500.23828px)} 82.978723% {transform: translate(1900.668757px,2500.23828px);animation-timing-function: cubic-bezier(0.015,1.12,0.05,0.995)} 85.106383% {transform: translate(1900.668757px,2664.13809px)} 95.744681% {transform: translate(1900.668757px,2664.13809px);animation-timing-function: cubic-bezier(0.015,1.12,0.05,0.995)} 97.87234% {transform: translate(1900.668757px,2500.23828px)} 100% {transform: translate(1900.668757px,2500.23828px)}} #er7dU6y09Mt6_ts {animation: er7dU6y09Mt6_ts__ts 4700ms linear infinite normal forwards}@keyframes er7dU6y09Mt6_ts__ts { 0% {transform: scale(1,1)} 25.531915% {transform: scale(1,1);animation-timing-function: cubic-bezier(0.105,0.335,0.925,0.575)} 27.659574% {transform: scale(1,0);animation-timing-function: cubic-bezier(0.105,0.335,0.925,0.575)} 29.787234% {transform: scale(1,1)} 68.085106% {transform: scale(1,1)} 82.978723% {transform: scale(1,1);animation-timing-function: cubic-bezier(0.015,1.12,0.05,0.995)} 85.106383% {transform: scale(1,0)} 95.744681% {transform: scale(1,0);animation-timing-function: cubic-bezier(0.015,1.12,0.05,0.995)} 97.87234% {transform: scale(1,1)} 100% {transform: scale(1,1)}} #er7dU6y09Mt7 {animation: er7dU6y09Mt7__m 4700ms linear infinite normal forwards}@keyframes er7dU6y09Mt7__m { 0% {d: path('M3023,2665C2987,2640,2966,2566,2966,2465C2966,2312,3002,2240,3077,2240C3161,2240,3195,2306,3195,2470C3195,2582,3181,2626,3136,2662C3110,2684,3052,2685,3023,2665Z')} 2.12766% {d: path('M3023,2665C2987,2640,2966,2566,2966,2465C2966,2312,3002,2240,3077,2240C3161,2240,3195,2306,3195,2470C3195,2582,3181,2626,3136,2662C3110,2684,3052,2685,3023,2665Z')} 4.255319% {d: path('M3040.892798,2634.81274C3004.892798,2609.81274,2966,2566,2966,2465C2966,2312,3002,2240,3077,2240C3161,2240,3195,2306,3195,2470C3195,2582,3182.14206,2619.203185,3137.14206,2655.203185C3111.14206,2677.203185,3069.892798,2654.81274,3040.892798,2634.81274Z')} 10.638298% {d: path('M3045.56824,2609.812737C3009.56824,2584.812737,2966,2566,2966,2465C2966,2312,3002,2240,3077,2240C3161,2240,3195,2306,3195,2470C3195,2582,3185.56824,2598.81274,3140.56824,2634.81274C3114.56824,2656.81274,3074.56824,2629.812737,3045.56824,2609.812737Z')} 42.553191% {d: path('M3037.56824,2589.81274C3001.56824,2564.81274,2966,2566,2966,2465C2966,2312,3002,2240,3077,2240C3161,2240,3195,2306,3195,2470C3195,2582,3185.56824,2598.81274,3140.56824,2634.81274C3114.56824,2656.81274,3066.56824,2609.81274,3037.56824,2589.81274Z')} 44.680851% {d: path('M3023,2665C2987,2640,2966,2566,2966,2465C2966,2312,3002,2240,3077,2240C3161,2240,3195,2306,3195,2470C3195,2582,3181,2626,3136,2662C3110,2684,3052,2685,3023,2665Z')} 59.574468% {d: path('M3023,2665C2987,2640,2966,2566,2966,2465C2966,2312,3002,2240,3077,2240C3161,2240,3195,2306,3195,2470C3195,2582,3181,2626,3136,2662C3110,2684,3052,2685,3023,2665Z')} 61.702128% {d: path('M3022.74305,2566.43457C2986.74305,2541.43457,2966,2566,2966,2465C2966,2312,3002,2240,3077,2240C3161,2240,3195,2306,3195,2470C3195,2582,3182.000005,2530.43457,3137.000005,2566.43457C3111.000005,2588.43457,3051.74305,2586.43457,3022.74305,2566.43457Z')} 63.829787% {d: path('M3037.520025,2502.339705C3001.520025,2477.339705,2966,2566,2966,2465C2966,2312,3002,2240,3077,2240C3161,2240,3195,2306,3195,2470C3195,2582,3170.520025,2466.339705,3125.520025,2502.339705C3099.520025,2524.339705,3066.520025,2522.339705,3037.520025,2502.339705Z')} 72.340426% {d: path('M3046.520025,2502.339705C3010.520025,2477.339705,2966,2566,2966,2465C2966,2312,3002,2240,3077,2240C3161,2240,3195,2306,3195,2470C3195,2582,3170.520021,2466.339705,3125.520021,2502.339705C3099.520021,2524.339705,3075.520025,2522.339705,3046.520025,2502.339705Z')} 74.468085% {d: path('M3023,2665C2987,2640,2966,2566,2966,2465C2966,2312,3002,2240,3077,2240C3161,2240,3195,2306,3195,2470C3195,2582,3181,2626,3136,2662C3110,2684,3052,2685,3023,2665Z')} 82.978723% {d: path('M3023,2665C2987,2640,2966,2566,2966,2465C2966,2312,3002,2240,3077,2240C3161,2240,3195,2306,3195,2470C3195,2582,3181,2626,3136,2662C3110,2684,3052,2685,3023,2665Z')} 100% {d: path('M3023,2665C2987,2640,2966,2566,2966,2465C2966,2312,3002,2240,3077,2240C3161,2240,3195,2306,3195,2470C3195,2582,3181,2626,3136,2662C3110,2684,3052,2685,3023,2665Z')}} #er7dU6y09Mt7_to {animation: er7dU6y09Mt7_to__to 4700ms linear infinite normal forwards}@keyframes er7dU6y09Mt7_to__to { 0% {transform: translate(3403.66614px,2500.248905px)} 2.12766% {transform: translate(3403.66614px,2500.248905px);animation-timing-function: cubic-bezier(0.095,0.635,0.69,0.77)} 8.510638% {transform: translate(3233.0979px,2500.248905px)} 42.553191% {transform: translate(3233.0979px,2500.248905px);animation-timing-function: cubic-bezier(0.095,0.635,0.69,0.77)} 48.93617% {transform: translate(3506.666135px,2500.2489px)} 59.574468% {transform: translate(3506.666135px,2500.2489px)} 61.702128% {transform: translate(3506.666135px,2594.627075px)} 63.829787% {transform: translate(3451.146115px,2658.72194px)} 72.340426% {transform: translate(3451.146115px,2658.72194px)} 74.468085% {transform: translate(3403.666135px,2500.2489px)} 82.978723% {transform: translate(3403.666135px,2500.2489px);animation-timing-function: cubic-bezier(0.015,1.12,0.05,0.995)} 85.106383% {transform: translate(3403.666135px,2664.14871px)} 95.744681% {transform: translate(3403.666135px,2664.14871px);animation-timing-function: cubic-bezier(0.015,1.12,0.05,0.995)} 97.87234% {transform: translate(3403.666135px,2500.2489px)} 100% {transform: translate(3403.666135px,2500.2489px)}} #er7dU6y09Mt7_ts {animation: er7dU6y09Mt7_ts__ts 4700ms linear infinite normal forwards}@keyframes er7dU6y09Mt7_ts__ts { 0% {transform: scale(1,1)} 25.531915% {transform: scale(1,1);animation-timing-function: cubic-bezier(0.105,0.335,0.925,0.575)} 27.659574% {transform: scale(1,0);animation-timing-function: cubic-bezier(0.105,0.335,0.925,0.575)} 29.787234% {transform: scale(1,1)} 68.085106% {transform: scale(1,1)} 82.978723% {transform: scale(1,1);animation-timing-function: cubic-bezier(0.015,1.12,0.05,0.995)} 85.106383% {transform: scale(1,0);animation-timing-function: cubic-bezier(0.02,0.885,1,0.145)} 95.744681% {transform: scale(1,0);animation-timing-function: cubic-bezier(0.015,1.12,0.05,0.995)} 97.87234% {transform: scale(1,1)} 100% {transform: scale(1,1)}} #er7dU6y09Mt13 {animation: er7dU6y09Mt13__m 4700ms linear infinite normal forwards}@keyframes er7dU6y09Mt13__m { 0% {d: path('M2961,1546C2953,1536,2955,1527,2970,1508C2970,1508,2990,1482,2990,1482C2990,1482,2942,1462,2942,1462C2916,1451,2872,1435,2844,1426C2654,1364,2286,1367,2106,1431C2040,1454,2010,1452,2010,1425C2010,1378,2126,1326,2264,1312C2303,1308,2412,1305,2505,1306C2651,1307,2691,1311,2789,1333C2863,1350,2925,1372,2967,1395C3028,1429,3034,1430,3050,1415C3072,1395,3099,1398,3114,1422C3129,1447,3097,1502,3049,1535C3006,1563,2978,1567,2961,1546Z')} 82.978723% {d: path('M2961,1546C2953,1536,2955,1527,2970,1508C2970,1508,2990,1482,2990,1482C2990,1482,2942,1462,2942,1462C2916,1451,2872,1435,2844,1426C2654,1364,2286,1367,2106,1431C2040,1454,2010,1452,2010,1425C2010,1378,2126,1326,2264,1312C2303,1308,2412,1305,2505,1306C2651,1307,2691,1311,2789,1333C2863,1350,2925,1372,2967,1395C3028,1429,3034,1430,3050,1415C3072,1395,3099,1398,3114,1422C3129,1447,3097,1502,3049,1535C3006,1563,2978,1567,2961,1546Z')} 85.106383% {d: path('M2940.28847,1570.279C2930.439002,1558.67216,2939.444277,1540.462637,2960.91234,1526.97795C2981.592659,1509.235701,2996.424981,1502.61355,3008.26572,1483C2989.212814,1467.605333,2996.561522,1476.490488,2947,1458.09944C2921,1447.09944,2872,1435,2844,1426C2654,1364,2286,1367,2106,1431C2041.074958,1455.343695,1909.830083,1536.87347,1880,1508C1822.974212,1452.802957,2123.772616,1325.277342,2264,1312C2303,1308,2412,1305,2505,1306C2651,1307,2691,1311,2789,1333C2863,1350,2925,1372,2967,1395C3028,1429,3053,1441,3069,1426C3087.218473,1398.436945,3132.719875,1361.6994,3148.195795,1386.65124C3135.493629,1454.305776,3110.890946,1471.120702,3069,1513C3026,1547.822208,2957.28847,1592.343813,2940.28847,1570.279Z')} 95.744681% {d: path('M2940.28847,1570.279C2930.439002,1558.67216,2939.444277,1540.462637,2960.91234,1526.97795C2981.592659,1509.235701,2996.424981,1502.61355,3008.26572,1483C2989.212814,1467.605333,2996.561522,1476.490488,2947,1458.09944C2921,1447.09944,2872,1435,2844,1426C2654,1364,2286,1367,2106,1431C2041.074958,1455.343695,1909.830083,1536.87347,1880,1508C1822.974212,1452.802957,2123.772616,1325.277342,2264,1312C2303,1308,2412,1305,2505,1306C2651,1307,2691,1311,2789,1333C2863,1350,2925,1372,2967,1395C3028,1429,3053,1441,3069,1426C3087.218473,1398.436945,3132.719875,1361.6994,3148.195795,1386.65124C3135.493629,1454.305776,3110.890946,1471.120702,3069,1513C3026,1547.822208,2957.28847,1592.343813,2940.28847,1570.279Z')} 97.87234% {d: path('M2961,1546C2953,1536,2955,1527,2970,1508C2970,1508,2990,1482,2990,1482C2990,1482,2942,1462,2942,1462C2916,1451,2872,1435,2844,1426C2654,1364,2286,1367,2106,1431C2040,1454,2010,1452,2010,1425C2010,1378,2126,1326,2264,1312C2303,1308,2412,1305,2505,1306C2651,1307,2691,1311,2789,1333C2863,1350,2925,1372,2967,1395C3028,1429,3034,1430,3050,1415C3072,1395,3099,1398,3114,1422C3129,1447,3097,1502,3049,1535C3006,1563,2978,1567,2961,1546Z')} 100% {d: path('M2961,1546C2953,1536,2955,1527,2970,1508C2970,1508,2990,1482,2990,1482C2990,1482,2942,1462,2942,1462C2916,1451,2872,1435,2844,1426C2654,1364,2286,1367,2106,1431C2040,1454,2010,1452,2010,1425C2010,1378,2126,1326,2264,1312C2303,1308,2412,1305,2505,1306C2651,1307,2691,1311,2789,1333C2863,1350,2925,1372,2967,1395C3028,1429,3034,1430,3050,1415C3072,1395,3099,1398,3114,1422C3129,1447,3097,1502,3049,1535C3006,1563,2978,1567,2961,1546Z')}} #er7dU6y09Mt32_tr {animation: er7dU6y09Mt32_tr__tr 4700ms linear infinite normal forwards}@keyframes er7dU6y09Mt32_tr__tr { 0% {transform: translate(135.33781px,207.03926px) rotate(720deg);animation-timing-function: cubic-bezier(0.415,0.08,0.115,0.955)} 100% {transform: translate(135.33781px,207.03926px) rotate(280.519481deg)}} #er7dU6y09Mt32 {animation: er7dU6y09Mt32_f_p 4700ms linear infinite normal forwards}@keyframes er7dU6y09Mt32_f_p { 0% {fill: #fff} 100% {fill: #e4e9f3}} #er7dU6y09Mt33_tr {animation: er7dU6y09Mt33_tr__tr 4700ms linear infinite normal forwards}@keyframes er7dU6y09Mt33_tr__tr { 0% {transform: translate(11.12px,29.9px) rotate(-720deg);animation-timing-function: cubic-bezier(0.415,0.08,0.115,0.955)} 100% {transform: translate(11.12px,29.9px) rotate(-280.519481deg)}}#er7dU6y09Mt26{display:inline!important;fill:rgb(0, 0, 0)!important;fill-opacity:1!important;filter:none!important;mask:none!important;opacity:1!important;stroke:none!important;stroke-opacity:1!important;stroke-width:1px!important;transform:matrix(0.714286, 0, 0, 0.714286, 363.128571, 442.142857)!important;transform-origin:0px 0px!important;visibility:visible!important}#er7dU6y09Mt27{display:inline!important;height:61.25px!important;fill:rgb(17, 35, 70)!important;fill-opacity:1!important;filter:none!important;mask:none!important;opacity:0.2!important;stroke:none!important;stroke-opacity:1!important;stroke-width:0px!important;transform:matrix(1, 0, 0, 1, -8.375042, -5.249997)!important;transform-origin:0px 0px!important;visibility:visible!important;width:175px!important;x:0px!important;y:0px!important}#er7dU6y09Mt28{d:path('M100.296,8.840967h1.86105v8.05706h-1.86105v-8.05706Zm.93793-1.32776c-.33752,0-.62035-.10561-.84864-.31684-.22829-.22129-.34251-.49288-.34251-.81477s.11422-.58843.34251-.79967c.22829-.22129.51112-.33193.84864-.33193s.62035.10562.84864.31685c.22829.20117.34251.45766.34251.76949c0,.33195-.11422.61358-.34251.84494-.21832.22129-.5013.33193-.84864.33193Zm17.50762,4.76743v4.61696h-1.86105v-4.37556c0-.70411-.16378-1.23218-.49133-1.58425-.32755-.3621-.7941-.54316-1.39949-.54316-.68501,0-1.2259.21123-1.62294.63369-.39705.41241-.59557,1.0109-.59557,1.7955v4.07379h-1.86105v-11.19538h1.86105v4.07379c.30776-.33195.68486-.58341,1.13162-.75441.45658-.18106.96271-.27159,1.51855-.27159c1.00259,0,1.80651.29673,2.41206.8902.60539.59346.90817,1.4736.90817,2.64042h-.00002Zm-11.14925,4.72426c-.87342,0-1.54846-.23136-2.02483-.69407-.47652-.46269-.71478-1.13663-.71478-2.02181v-3.87763h-1.3102v-1.50882h1.3102v-1.84075h1.8612v1.84075h2.12908v1.50882h-2.12908v3.83237c0,.39231.09428.69407.28283.9053.18855.20117.46156.30176.81888.30176.41684,0,.76433-.11065,1.04218-.33195l.52109,1.34285c-.21832.18106-.48634.31685-.80392.40738-.30776.09053-.63531.13579-.98265.13579v.00001Zm-13.2957-.10591l-2.05474-5.55243-2.08436,5.55243h-1.78672l-2.91819-8.05706h1.75696l2.09931,5.94472l2.18861-5.94472h1.56327l2.14403,5.97489l2.15884-5.97489h1.65271l-2.93315,8.05706h-1.78657Zm-13.58488-3.98495c0,.13076-.00982.31685-.02976.55826h-6.23841c.10923.59347.39221,1.06623.84879,1.41829.4664.34199,1.04218.51299,1.72704.51299.87342,0,1.59303-.2917,2.15884-.87511l.99761,1.16179c-.35731.43252-.80906.75943-1.35492.98072s-1.16138.33195-1.84625.33195c-.87342,0-1.64274-.17603-2.30766-.52808-.66507-.35206-1.18118-.83991-1.54846-1.46355-.35731-.63369-.53605-1.34787-.53605-2.14251c0-.78458.17375-1.48869.52109-2.11234.35731-.63371.84864-1.12657,1.47398-1.47863s1.33015-.52808,2.11427-.52808c.77415,0,1.464.17603,2.06955.52808.61537.34199,1.09189.82985,1.42926,1.46354.34749.62364.52109,1.34788.52109,2.1727l-.00001-.00002Zm-4.01989-2.65551c-.59557,0-1.1017.18106-1.5187.54318-.40687.35206-.6551.82481-.74439,1.41829h4.51122c-.07932-.58341-.32256-1.05617-.72943-1.41829-.40702-.36212-.9133-.54318-1.5187-.54318Zm-7.67538,6.63907v-1.04108c-.30776.38223-.68985.66889-1.14643.86002-.44676.19112-.94291.28668-1.48893.28668-.76433,0-1.45403-.17101-2.06955-.51301-.60539-.34199-1.08191-.82481-1.42925-1.44846-.34749-.63369-.52109-1.35793-.52109-2.17268s.17359-1.53397.52109-2.1576c.34734-.62364.82386-1.10646,1.42925-1.44846.61552-.34201,1.30522-.51301,2.06955-.51301.52607,0,1.00743.09053,1.44421.27159s.8089.45265,1.11666.81477v-4.13414h1.86105v11.19538h-1.78656Zm-.35731-2.70078c.20834-.38223.31259-.82481.31259-1.32774s-.10425-.94553-.31259-1.32776c-.2085-.38223-.49133-.67394-.84864-.87511-.35746-.21125-.75935-.31685-1.2061-.31685-.4466,0-.84864.10561-1.20595.31685-.35731.20117-.64014.49288-.84864.87511s-.31259.82481-.31259,1.32776.1041.94551.31259,1.32774.49132.67897.84864.8902c.35731.20118.75935.30176,1.20595.30176.44676,0,.84864-.10058,1.2061-.30176.35731-.21123.64014-.50796.84864-.8902ZM56.93698,8.749727c1.1712,0,2.06456.28667,2.67993.86002.62534.56329.93793,1.41829.93793,2.56499v4.72257h-1.75681v-.98072c-.22829.35206-.55584.62363-.98265.81475-.41699.18106-.92312.27159-1.5187.27159s-1.11666-.10059-1.56327-.30176c-.44671-.21125-.79411-.49791-1.04225-.86003-.23823-.37217-.35733-.78961-.35733-1.25231c0-.72424.26304-1.30262.7891-1.73514.536-.44259,1.37467-.66388,2.51626-.66388h2.05459v-.1207c0-.56329-.16876-.99581-.50628-1.29757-.32755-.30178-.81888-.45265-1.47398-.45265-.4466,0-.88837.0704-1.32501.21123-.42681.14083-.78911.33696-1.08691.58844l-.72956-1.37302c.41689-.32189.91812-.56832,1.50373-.73932s1.20595-.2565,1.8612-.2565l.00001.00001Zm-.25322,6.88017c.46655,0,.8784-.10562,1.23587-.31685.36714-.22129.62519-.53312.77415-.93545v-.93547h-1.92073c-1.07194,0-1.60784.35709-1.60784,1.07126c0,.34199.13386.61357.40188.81475s.6403.30176,1.11666.30176h.00001Zm-10.69116.06065h-.86354l-3.42441-5.7033v6.91036h-1.8462v-10.56169h1.59309l4.13907,7.00089l4.06463-7.00089h1.59309l.01488,10.56169h-1.8313l-.0149-7.00089-3.42441,5.79383ZM109.33381,29.33985v15.15h-3.372v-1.962c-.57764.71189-1.32435,1.2678-2.172,1.617-.90563.36793-1.87555.55151-2.853.54-1.37977.02378-2.74245-.30785-3.957-.963-1.13745-.62625-2.07375-1.56255-2.7-2.7-1.30391-2.56373-1.30391-5.59627,0-8.16.6281-1.13606,1.56394-2.0719,2.7-2.7c1.21546-.65275,2.57751-.98423,3.957-.963.92501-.00857,1.84259.16578,2.7.513.8172.33509,1.54983.84741,2.145,1.5v-.762c0-.28643.11378-.56114.31633-.76367s.47724-.31633.76367-.31633l2.472-.03Zm-4.767,11.01c1.70241-1.9736,1.70241-4.8964,0-6.87-1.79985-1.74394-4.65915-1.74394-6.459,0-1.68467,1.98016-1.68467,4.88984,0,6.87.84101.87157,2.01145,1.34672,3.222,1.308c1.21374.03854,2.38799-.43377,3.237-1.302v-.006Zm17.94,3.324c-.4506.35546-.96927.61479-1.524.762-.61408.17233-1.2492.25816-1.887.255-1.41013.09088-2.79902-.37927-3.864-1.308-.9622-1.0234-1.45181-2.403-1.35-3.804v-13.59h2.469c.28643,0,.56114.11378.76367.31633s.31633.47724.31633.76367v2.379h4.047v2.853h-4.047v7.2c-.04376.61441.15433,1.2216.552,1.692.40613.41048.96838.62774,1.545.597.22613.00135.45196-.01672.675-.054.80958-.16952,1.6251.26156,1.941,1.026l.363.912Zm5.079.027c-1.20043-.63362-2.19844-1.59212-2.88-2.766-1.3796-2.49392-1.3796-5.52208,0-8.016.68541-1.16705,1.68279-2.11975,2.88-2.751c2.61457-1.32565,5.70443-1.32565,8.319,0c1.19702.63151,2.19433,1.58416,2.88,2.751c1.3796,2.49392,1.3796,5.52208,0,8.016-.68182,1.17368-1.67976,2.13211-2.88,2.766-2.61457,1.32565-5.70443,1.32565-8.319,0Zm7.392-3.369c1.70241-1.9736,1.70241-4.8964,0-6.87-1.79985-1.74394-4.65915-1.74394-6.459,0-1.68467,1.98016-1.68467,4.88984,0,6.87.84101.87157,2.01145,1.34672,3.222,1.308c1.21059.04404,2.38438-.42048,3.237-1.281v-.027Zm17.022-11.16v3.372c-.27077-.05406-.54592-.08318-.822-.087-1.19439-.06706-2.36247.36798-3.222,1.2-.83467.95959-1.25439,2.2112-1.167,3.48v7.353h-3.552v-15.15h2.298c.28643,0,.56113.11379.76367.31633s.31633.47724.31633.76367v1.134c1.014-1.588,2.809-2.382,5.385-2.382Zm-107.022,15.042c-.99952-.24447-1.95011-.65737-2.811-1.221l.621-1.233c.3744-.7399,1.2508-1.07278,2.022-.768.37389.15524.75654.28847,1.146.399.91807.26884,1.86939.4072,2.826.411c2.118,0,3.179-.557,3.183-1.671.01432-.51063-.31898-.96614-.81-1.107-.84397-.28199-1.7129-.4829-2.595-.6-1.03337-.14877-2.05419-.3744-3.054-.675-.77526-.24876-1.47221-.69547-2.022-1.296-.61143-.71083-.9214-1.63215-.864-2.568-.02956-1.38298.6493-2.68527,1.8-3.453c1.44674-.93234,3.1502-1.38576,4.869-1.296c1.05397.00022,2.10457.11896,3.132.354.90209.18897,1.76874.51902,2.568.978l-.675,1.296c-.363.73034-1.21602,1.07232-1.983.795-.9848-.3605-2.02631-.54137-3.075-.534-.81824-.04818-1.63519.11397-2.373.471-.48302.22293-.79719.70118-.81,1.233-.01041.54748.34149,1.03623.864,1.2.87464.31646,1.77934.54264,2.7.675c1.00825.15143,2.00395.37704,2.979.675.77042.2345,1.46702.66444,2.022,1.248.59601.69214.89656,1.59055.837,2.502.02092,1.37985-.67962,2.67062-1.848,3.405-1.50499.92728-3.25673,1.37412-5.022,1.281-1.22607-.00259-2.44614-.17112-3.627-.501Zm44.883-14.874v12.858c0,5.336-2.724,8.004-8.172,8.004-1.40084.00811-2.79608-.17765-4.146-.552-1.17835-.30549-2.28055-.85199-3.237-1.605l1.026-1.713c.30567-.49262.95204-.6455,1.446-.342.51805.29338,1.06493.53264,1.632.714.99571.32459,2.03673.48864,3.084.486c1.664,0,2.884-.378,3.66-1.134.84612-.94702,1.26781-2.19906,1.167-3.465v-.795c-.61114.66419-1.36796,1.17763-2.211,1.5-.91436.34924-1.88627.52327-2.865.513-1.35633.0185-2.69615-.29893-3.9-.924-1.14224-.59206-2.09694-1.49066-2.757-2.595-.68212-1.15978-1.02996-2.48573-1.005-3.831-.02691-1.34077.32116-2.66242,1.005-3.816.65985-1.09557,1.61266-1.98501,2.751-2.568c1.20751-.61258,2.54617-.9215,3.9-.9c1.02537-.01399,2.04386.16934,3,.54.88145.34534,1.65934.91145,2.259,1.644v-.936c0-.28643.11379-.56114.31633-.76367s.47724-.31633.76367-.31633l2.283-.003Zm-4.782,10.263c.86632-.80774,1.34014-1.95125,1.299-3.135.03647-1.17094-.43625-2.30022-1.296-3.096-1.9293-1.58787-4.7127-1.58787-6.642,0-.85642.7974-1.32577,1.92647-1.287,3.096-.04421,1.18189.4251,2.3251,1.287,3.135c1.92186,1.60535,4.71714,1.60535,6.639,0Zm-12.057-10.278l-5.892,13.743c-.36888.86087-1.21443,1.41985-2.151,1.422h-1.902l5.763-13.404.3-.675c.28294-.65223.92704-1.07338,1.638-1.071l2.244-.015Zm-10.785,13.263l-5.889-13.236h2.511c.71819-.00121,1.36666.42953,1.644,1.092l3.492,8.046-1.758,4.098Z')!important;display:inline!important;fill:rgb(255, 255, 255)!important;fill-opacity:1!important;filter:none!important;mask:none!important;opacity:0.8!important;stroke:none!important;stroke-opacity:1!important;stroke-width:1px!important;transform:none!important;transform-origin:0px 0px!important;visibility:visible!important}#er7dU6y09Mt29{display:inline!important;fill:rgb(0, 0, 0)!important;fill-opacity:1!important;filter:none!important;mask:url(#er7dU6y09Mt31)!important;opacity:0.8!important;stroke:none!important;stroke-opacity:1!important;stroke-width:1px!important;transform:matrix(0.3, 0, 0, 0.3, -18.12243, -25.905895)!important;transform-origin:0px 0px!important;visibility:visible!important}#er7dU6y09Mt30{d:path('M129.5,243.58426c-8.76,2.18-20.08,1.79-37.33-19.63-2.35828-2.9281-4.38181-6.36293-5.93416-10.02849c3.00814.97918,6.21933,1.50849,9.55416,1.50849c17.03246,0,30.84-13.80754,30.84-30.84c0-5.42003-1.39819-10.5135-3.85355-14.93939c22.54068-3.14789,48.24701-1.18662,56.01355,6.19939c12.32,11.73-14.11,59.03-49.29,67.73Z')!important;display:inline!important;fill:rgb(255, 255, 255)!important;fill-opacity:1!important;filter:none!important;mask:none!important;opacity:1!important;stroke:none!important;stroke-opacity:1!important;stroke-width:1px!important;transform:none!important;transform-origin:0px 0px!important;visibility:visible!important}#er7dU6y09Mt31{display:inline!important;height:400%!important;fill:rgb(0, 0, 0)!important;fill-opacity:1!important;filter:none!important;mask:none!important;opacity:1!important;stroke:none!important;stroke-opacity:1!important;stroke-width:1px!important;transform:none!important;transform-origin:0px 0px!important;visibility:visible!important;width:400%!important;x:-150%!important;y:-150%!important}#er7dU6y09Mt32{d:path('M78.37454,207.03926c0-31.45994,25.50332-56.96327,56.96327-56.96327s56.96327,25.50332,56.96327,56.96327-25.50332,56.96327-56.96327,56.96327-56.96327-25.50332-56.96327-56.96327Zm89.23546-4.715c-.16775-.93858-1.05962-1.56734-2-1.41h-.06c-4.15414.71597-8.30501-1.28258-10.33588-4.97651s-1.49439-8.26953,1.33588-11.39349c.33036-.3301.51598-.77798.51598-1.245s-.18561-.9149-.51598-1.245l-.11-.1c-2.70671-2.31865-5.78705-4.16144-9.11-5.45-.43613-.17299-.92328-.16468-1.35326.02308s-.76719.53944-.93674.97692v.06c-1.40364,3.98681-5.18789,6.63916-9.41438,6.59848s-7.95898-2.76539-9.28562-6.77848c-.13404-.44903-.44162-.82607-.85458-1.04757s-.8972-.26916-1.34542-.13243h-.11c-3.26392,1.21388-6.31249,2.94242-9.03,5.12-.37331.28196-.619.70095-.6828,1.16441s.05956.93325.3428,1.30559l.1.12c2.68294,3.2243,3.03751,7.79124.8844,11.39101s-6.34454,5.44763-10.4544,4.60899c-.45624-.10445-.9353-.02286-1.33126.22672s-.67619.6466-.77874,1.10328v.09c-.55386,3.43784-.55386,6.94217,0,10.38.06433.46505.31181.88512.68739,1.16681s.84815.40164,1.31261.33319h.11c4.15414-.71597,8.30501,1.28258,10.33588,4.97651s1.49439,8.26953-1.33588,11.39349c-.33036.3301-.51598.77798-.51598,1.245s.18561.9149.51598,1.245l.11.1c2.70914,2.30768,5.7893,4.14023,9.11,5.42.43613.17299.92328.16468,1.35326-.02308s.76719-.53944.93674-.97692v-.06c1.40815-3.97311,5.18194-6.61524,9.39704-6.57914s7.94308,2.7425,9.28296,6.73914c.13404.44903.44162.82607.85458,1.04757s.8972.26916,1.34542.13243h.11c3.30375-1.22537,6.38706-2.97809,9.13-5.19.37164-.28659.61343-.70974.67164-1.17542s-.07198-.93533-.36164-1.30458l-.1-.12c-2.83001-3.19588-3.28744-7.84789-1.13412-11.53378s6.43037-5.57199,10.60412-4.67622c.93041.23341,1.87421-.33019,2.11-1.26v-.09c.5347-3.37898.5347-6.82102,0-10.2Zm-41.67,4.69c0-5.197,4.213-9.41,9.41-9.41s9.41,4.213,9.41,9.41-4.213,9.41-9.41,9.41-9.41-4.213-9.41-9.41Z')!important;display:inline!important;fill-opacity:1!important;filter:none!important;mask:none!important;opacity:1!important;stroke:none!important;stroke-opacity:1!important;stroke-width:0px!important;transform:matrix(1, 0, 0, 1, -135.33781, -207.03926)!important;transform-origin:0px 0px!important;visibility:visible!important}#er7dU6y09Mt32_tr{display:inline!important;fill:rgb(0, 0, 0)!important;fill-opacity:1!important;filter:none!important;mask:none!important;opacity:1!important;stroke:none!important;stroke-opacity:1!important;stroke-width:1px!important;transform-origin:0px 0px!important;visibility:visible!important}#er7dU6y09Mt33{d:path('M116.33,114.77l-3.64-2.18c-1.023263-.593162-1.652267-1.687247-1.65-2.87v-2c-.002267-1.182753.626737-2.276838,1.65-2.87l3.64-2.18c.762973-.435835,1.321342-1.157154,1.552062-2.005003s.114855-1.752643-.322062-2.514997v0l-1.74-3c-.935215-1.566004-2.961067-2.080293-4.53-1.15v0l-3.68,2.18c-1.024118.591275-2.285882.591275-3.31,0l-1.7-1c-1.023263-.593162-1.652267-1.687247-1.65-2.87v-4.38c0-.877867-.348731-1.719778-.969477-2.340523s-1.462656-.969477-2.340523-.969477h-3.47c-.877867,0-1.719778.348731-2.340523.969477s-.969477,1.462656-.969477,2.340523s0,.06,0,.09v4.35c.002267,1.182753-.626737,2.276838-1.65,2.87l-1.68,1c-1.024118.591275-2.285882.591275-3.31,0L80.56,94c-.767143-.448916-1.682599-.570435-2.540292-.337203s-1.585543.801616-2.019708,1.577203v0l-1.74,3c-.443418.7584-.567152,1.661967-.343945,2.511654s.775044,1.575787,1.533945,2.018346v0L79.1,105c1.023263.593162,1.652267,1.687247,1.65,2.87v2c.002267,1.182753-.626737,2.276838-1.65,2.87l-3.61,2.18c-1.578036.917936-2.114924,2.940216-1.2,4.52v0l1.74,3c.917936,1.578036,2.940216,2.114924,4.52,1.2v0l3.66-2.18c1.024118-.591275,2.285882-.591275,3.31,0l1.68,1c1.023263.593162,1.652267,1.687247,1.65,2.87v3.67c0,.877867.348731,1.719778.969477,2.340523s1.462656.969477,2.340523.969477h3.46c.877867,0,1.719778-.348731,2.340523-.969477s.969477-1.462656.969477-2.340523v0-3.77c-.002267-1.182753.626737-2.276838,1.65-2.87l1.7-1c1.024118-.591275,2.285882-.591275,3.31,0l3.66,2.18c1.5824.913239,3.605483.371662,4.52-1.21v0l1.74-3c.938839-1.568495.428452-3.601089-1.14-4.54Zm-20.49.91c-3.865993,0-7-3.134007-7-7s3.134007-7,7-7s7,3.134007,7,7v0c0,3.865993-3.134007,7-7,7v0Z')!important;display:inline!important;fill:rgb(255, 255, 255)!important;fill-opacity:1!important;filter:none!important;mask:none!important;opacity:0.8!important;stroke:none!important;stroke-opacity:1!important;stroke-width:1px!important;transform:matrix(0.3, 0, 0, 0.3, -28.770844, -32.5395)!important;transform-origin:0px 0px!important;visibility:visible!important}#er7dU6y09Mt33_tr{display:inline!important;fill:rgb(0, 0, 0)!important;fill-opacity:1!important;filter:none!important;mask:none!important;opacity:1!important;stroke:none!important;stroke-opacity:1!important;stroke-width:1px!important;transform-origin:0px 0px!important;visibility:visible!important}
  </style>

  <!-- "I am" paths, scaled ~2x and positioned -->
  <g class="greeting" transform="translate(2, 58) scale(0.8)">
    <path d="M3.95028 0L3.97857 26.1818L0.0282894 26.1861L0 0.00426827L3.95028 0Z"/>
    <path d="M26.8269 26.5918C25.5826 26.5931 24.4573 26.3642 23.4511 25.9051C22.445 25.4374 21.6473 24.7607 21.0583 23.875C20.4778 22.9893 20.1869 21.9029 20.1855 20.616C20.1843 19.508 20.3964 18.5959 20.8217 17.8795C21.2471 17.1631 21.8218 16.5958 22.5457 16.1774C23.2697 15.759 24.079 15.4427 24.9737 15.2287C25.8684 15.0147 26.7801 14.8518 27.709 14.74C28.885 14.6023 29.8394 14.4905 30.5722 14.4045C31.3051 14.3099 31.8376 14.1602 32.1698 13.9553C32.5019 13.7504 32.6678 13.4178 32.6673 12.9576L32.6672 12.8681C32.666 11.7517 32.3497 10.8869 31.7183 10.274C31.0955 9.66102 30.1662 9.3552 28.9304 9.35654C27.6435 9.35793 26.6296 9.64454 25.8887 10.2164C25.1564 10.7797 24.65 11.4066 24.3695 12.0973L20.7762 11.283C21.2011 10.0893 21.8222 9.12558 22.6396 8.39174C23.4655 7.64937 24.4152 7.11141 25.4887 6.77787C26.5622 6.4358 27.6913 6.26413 28.8759 6.26285C29.66 6.262 30.4911 6.35485 31.3691 6.5414C32.2557 6.71942 33.0828 7.05091 33.8503 7.53588C34.6264 8.02084 35.2621 8.71475 35.7574 9.61763C36.2527 10.512 36.5011 11.6751 36.5027 13.1069L36.5168 26.1466L32.7838 26.1507L32.7809 23.466L32.6275 23.4662C32.3809 23.9608 32.0106 24.447 31.5168 24.9248C31.023 25.4026 30.3885 25.7996 29.6133 26.1158C28.8381 26.4319 27.9093 26.5906 26.8269 26.5918ZM27.6545 23.5227C28.7114 23.5216 29.6145 23.3118 30.3641 22.8934C31.1222 22.4749 31.6968 21.9288 32.0882 21.2551C32.488 20.5729 32.6875 19.844 32.6867 19.0684L32.6839 16.5371C32.5477 16.6737 32.2836 16.8018 31.8917 16.9215C31.5083 17.0327 31.0695 17.1312 30.5753 17.217C30.081 17.2942 29.5996 17.3672 29.1309 17.4359C28.6622 17.496 28.2702 17.5476 27.9549 17.5906C27.2136 17.6851 26.5362 17.8435 25.9228 18.0658C25.3179 18.288 24.8325 18.6081 24.4664 19.0261C24.1089 19.4356 23.9305 19.9813 23.9313 20.6631C23.9323 21.6091 24.2825 22.3246 24.9819 22.8097C25.6813 23.2862 26.5721 23.5239 27.6545 23.5227Z"/>
    <path d="M42.688 26.14L42.6668 6.50363L46.3358 6.49966L46.3393 9.69568L46.5822 9.69542C46.9901 8.61259 47.6582 7.76812 48.5865 7.162C49.5149 6.54736 50.6267 6.23934 51.9222 6.23794C53.2347 6.23653 54.3345 6.54216 55.2215 7.15483C56.117 7.7675 56.7785 8.61054 57.2058 9.68394L57.4103 9.68372C57.8779 8.63492 58.6228 7.79889 59.6448 7.17562C60.6669 6.54384 61.8853 6.22718 63.3 6.22565C65.0813 6.22373 66.535 6.78039 67.6612 7.89565C68.7959 9.01091 69.3645 10.6935 69.367 12.9435L69.3812 26.1111L65.5587 26.1153L65.5449 13.3056C65.5435 11.9761 65.1802 11.0134 64.4551 10.4176C63.7301 9.82178 62.8647 9.52442 61.859 9.52551C60.6147 9.52685 59.6478 9.91142 58.9582 10.6792C58.2687 11.4385 57.9246 12.4147 57.9259 13.6079L57.9394 26.1235L54.1298 26.1276L54.1157 13.0751C54.1145 12.0097 53.7812 11.1536 53.1157 10.5065C52.4503 9.85953 51.5849 9.53661 50.5195 9.53776C49.7951 9.53854 49.1263 9.73102 48.513 10.1152C47.9083 10.4909 47.4188 11.0155 47.0446 11.6892C46.6788 12.3629 46.4964 13.143 46.4974 14.0293L46.5105 26.1358L42.688 26.14Z"/>
  </g>

  <!-- "Hugues P." paths, scaled ~1.5x and positioned -->
  <g class="name" transform="translate(0, 98) scale(1)">
    <path d="M3.61 26.904C3.25533 26.904 2.98933 26.7773 2.812 26.524C2.63467 26.2453 2.52067 25.9287 2.47 25.574C2.41933 25.194 2.394 24.8773 2.394 24.624V22.724C2.394 21.7107 2.48267 20.6973 2.66 19.684C2.86267 18.6453 2.97667 17.5813 3.002 16.492H2.964V16.34C2.964 16.1373 2.93867 16.0107 2.888 15.96C2.86267 15.884 2.85 15.846 2.85 15.846C2.19133 15.846 1.54533 15.7193 0.912 15.466C0.304 15.2127 0 14.6933 0 13.908C0 13.072 0.278667 12.4767 0.836 12.122C1.39333 11.7673 2.052 11.5393 2.812 11.438C3.192 11.2353 3.382 10.8047 3.382 10.146V3.42C3.382 2.91333 3.40733 2.40667 3.458 1.9C3.50867 1.368 3.67333 0.924666 3.952 0.569999C4.256 0.19 4.77533 0 5.51 0C6.09267 0 6.612 0.215333 7.068 0.645998C7.54933 1.05133 7.79 1.54533 7.79 2.128V11.248H17.252C17.5307 11.248 17.784 11.1973 18.012 11.096C18.2653 10.9947 18.4427 10.8047 18.544 10.526C18.544 10.1713 18.5693 9.66467 18.62 9.006C18.696 8.34733 18.772 7.66333 18.848 6.954C18.9493 6.21933 19.038 5.548 19.114 4.94C19.2153 4.332 19.2787 3.88867 19.304 3.61C19.4053 2.87533 19.6207 2.19133 19.95 1.558C20.3047 0.899333 20.9127 0.569999 21.774 0.569999C22.1287 0.569999 22.458 0.620666 22.762 0.722C23.0913 0.823333 23.3447 1.08933 23.522 1.52V2.508C23.522 3.82533 23.3953 5.10467 23.142 6.346C22.8887 7.58733 22.762 8.854 22.762 10.146V11.286C23.37 11.514 23.8387 11.78 24.168 12.084C24.4973 12.388 24.662 12.8187 24.662 13.376C24.662 13.9333 24.5733 14.3387 24.396 14.592C24.244 14.8453 24.0413 15.0227 23.788 15.124C23.56 15.2253 23.332 15.314 23.104 15.39C22.876 15.466 22.6987 15.6053 22.572 15.808V21.204C22.572 21.66 22.5087 22.2047 22.382 22.838C22.2807 23.4713 22.078 24.0287 21.774 24.51C21.47 24.966 21.0393 25.194 20.482 25.194C19.6713 25.194 19.0887 24.9533 18.734 24.472C18.3793 23.9907 18.164 23.408 18.088 22.724C18.012 22.04 17.974 21.4067 17.974 20.824C17.974 20.0387 17.9993 19.266 18.05 18.506C18.1007 17.7207 18.126 16.948 18.126 16.188C18.126 16.112 18.1133 16.036 18.088 15.96C18.088 15.8587 18.05 15.7573 17.974 15.656C17.518 15.656 16.91 15.6433 16.15 15.618C15.4153 15.5927 14.6553 15.58 13.87 15.58C13.0847 15.5547 12.3627 15.5293 11.704 15.504C11.0707 15.4787 10.6147 15.466 10.336 15.466H9.424C8.86667 15.466 8.41067 15.542 8.056 15.694C7.72667 15.846 7.51133 16.1373 7.41 16.568C7.35933 17.556 7.32133 18.582 7.296 19.646C7.27067 20.6847 7.19467 21.7233 7.068 22.762C6.94133 23.8007 6.67533 24.7887 6.27 25.726C6.24467 26.0047 6.16867 26.2707 6.042 26.524C5.91533 26.7773 5.67467 26.904 5.32 26.904H3.61Z"/>
    <path d="M36.3262 26.144C35.2369 26.144 34.3249 25.916 33.5902 25.46C32.8809 24.9787 32.3235 24.358 31.9182 23.598C31.5129 22.838 31.2215 22.0147 31.0442 21.128C30.8922 20.216 30.8162 19.3167 30.8162 18.43V16.568C30.8162 16.492 30.8542 16.2007 30.9302 15.694C31.0062 15.162 31.0822 14.592 31.1582 13.984C31.2595 13.376 31.3356 12.92 31.3862 12.616C31.4622 12.2613 31.5509 11.818 31.6522 11.286C31.7789 10.7287 31.9309 10.184 32.1082 9.652C32.3109 9.09467 32.5642 8.63867 32.8682 8.284C33.1975 7.904 33.5902 7.714 34.0462 7.714C34.7302 7.714 35.2495 7.91667 35.6042 8.322C35.9842 8.72733 36.1742 9.22133 36.1742 9.804C36.1742 10.2853 36.0982 10.754 35.9462 11.21C35.8196 11.666 35.7055 12.1347 35.6042 12.616C35.4269 13.5787 35.2496 14.5413 35.0722 15.504C34.9202 16.4667 34.8442 17.442 34.8442 18.43C34.8442 18.7847 34.8696 19.2407 34.9202 19.798C34.9709 20.3553 35.1102 20.8493 35.3382 21.28C35.5662 21.7107 35.9589 21.926 36.5162 21.926C36.9469 21.926 37.4536 21.6473 38.0362 21.09C38.6442 20.5327 39.2775 19.8107 39.9362 18.924C40.6202 18.0373 41.3042 17.0747 41.9882 16.036C42.6722 14.972 43.3055 13.946 43.8882 12.958C44.4962 11.9447 45.0156 11.058 45.4462 10.298C45.8769 9.51267 46.1809 8.968 46.3582 8.664C46.5609 8.38533 46.7762 8.15733 47.0042 7.98C47.2322 7.80267 47.5236 7.714 47.8782 7.714C49.0689 7.714 49.7782 8.27133 50.0062 9.386V10.754C50.0062 11.8687 49.9682 12.9833 49.8922 14.098C49.8415 15.1873 49.8162 16.2513 49.8162 17.29V19.532C49.8922 19.9373 50.0569 20.3047 50.3102 20.634C50.5635 20.9633 50.7916 21.2927 50.9942 21.622C51.2222 21.926 51.3362 22.2933 51.3362 22.724C51.3362 23.3067 51.1589 23.8007 50.8042 24.206C50.4495 24.6113 49.9809 24.814 49.3982 24.814C48.6382 24.814 48.0302 24.5607 47.5742 24.054C47.1182 23.522 46.7635 22.9013 46.5102 22.192C46.3582 21.736 46.1809 21.1533 45.9782 20.444C45.8009 19.7093 45.6236 18.9873 45.4462 18.278C45.0662 18.9367 44.6356 19.5953 44.1542 20.254C43.6982 20.8873 43.2169 21.508 42.7102 22.116C41.8996 23.1293 40.9495 24.054 39.8602 24.89C38.7709 25.726 37.5929 26.144 36.3262 26.144Z"/>
    <path d="M64.7244 37.24C63.9897 36.9867 63.2804 36.6447 62.5964 36.214C61.9377 35.8087 61.3931 35.3273 60.9624 34.77C60.5571 34.238 60.3544 33.6553 60.3544 33.022C60.3544 32.4393 60.5571 32.0087 60.9624 31.73C61.3931 31.4513 61.8491 31.312 62.3304 31.312C62.8877 31.312 63.3437 31.4767 63.6984 31.806C64.0784 32.1607 64.4711 32.5027 64.8764 32.832C65.3071 33.1867 65.8264 33.364 66.4344 33.364C67.1691 33.364 67.8151 33.1233 68.3724 32.642C68.9297 32.1607 69.3984 31.54 69.7784 30.78C70.1584 30.02 70.4497 29.2093 70.6524 28.348C70.8804 27.4867 71.0071 26.676 71.0324 25.916C71.0577 25.7387 71.0957 25.3587 71.1464 24.776C71.1971 24.168 71.2477 23.5347 71.2984 22.876C71.3744 22.2173 71.4124 21.736 71.4124 21.432V21.052C71.4124 20.8493 71.3617 20.748 71.2604 20.748H71.1084C70.3484 21.6347 69.5631 22.5467 68.7524 23.484C67.9671 24.4213 67.0804 25.2067 66.0924 25.84C65.1044 26.448 63.9644 26.752 62.6724 26.752C61.6844 26.752 60.7597 26.4987 59.8984 25.992C59.0371 25.4853 58.3404 24.8013 57.8084 23.94C57.2764 23.0787 57.0104 22.116 57.0104 21.052C57.0104 19.304 57.3524 17.5687 58.0364 15.846C58.7204 14.098 59.6704 12.5147 60.8864 11.096C62.1024 9.67733 63.5084 8.53733 65.1044 7.676C66.7257 6.81467 68.4737 6.384 70.3484 6.384C70.8551 6.384 71.3871 6.47267 71.9444 6.65C72.5017 6.82733 72.9704 7.11867 73.3504 7.524C73.7557 7.904 73.9584 8.42333 73.9584 9.082C73.9584 9.66467 73.7431 10.1333 73.3124 10.488C72.9071 10.8427 72.4131 11.02 71.8304 11.02C71.4251 11.02 71.0197 10.9567 70.6144 10.83C70.2344 10.7033 69.8417 10.64 69.4364 10.64H68.6764C67.2831 11.0453 66.0164 11.7673 64.8764 12.806C63.7617 13.8193 62.8751 15.01 62.2164 16.378C61.5577 17.7207 61.2284 19.0887 61.2284 20.482V21.774C61.4311 22.5087 61.8491 22.876 62.4824 22.876C63.0651 22.876 63.6477 22.6607 64.2304 22.23C64.8131 21.7993 65.3831 21.2673 65.9404 20.634C66.4977 19.9753 67.0171 19.3293 67.4984 18.696C67.9797 18.0373 68.4231 17.4927 68.8284 17.062C69.2084 16.4033 69.6391 15.7827 70.1204 15.2C70.6017 14.592 71.0451 13.9587 71.4504 13.3C71.7291 12.9453 71.9951 12.7047 72.2484 12.578C72.5017 12.4513 72.8057 12.388 73.1604 12.388C73.7937 12.388 74.2497 12.5653 74.5284 12.92C74.8324 13.2493 75.0477 13.6673 75.1744 14.174C75.3011 14.6807 75.3897 15.162 75.4404 15.618V18.468C75.4404 19.5067 75.4024 20.6847 75.3264 22.002C75.2757 23.3193 75.1491 24.6873 74.9464 26.106C74.7691 27.4993 74.4777 28.8547 74.0724 30.172C73.667 31.4893 73.1224 32.68 72.4384 33.744C71.7797 34.808 70.9437 35.6567 69.9304 36.29C68.9171 36.9233 67.6884 37.24 66.2444 37.24H64.7244Z"/>
    <path d="M87.1438 26.144C86.0545 26.144 85.1425 25.916 84.4078 25.46C83.6985 24.9787 83.1411 24.358 82.7358 23.598C82.3305 22.838 82.0391 22.0147 81.8618 21.128C81.7098 20.216 81.6338 19.3167 81.6338 18.43V16.568C81.6338 16.492 81.6718 16.2007 81.7478 15.694C81.8238 15.162 81.8998 14.592 81.9758 13.984C82.0771 13.376 82.1531 12.92 82.2038 12.616C82.2798 12.2613 82.3685 11.818 82.4698 11.286C82.5965 10.7287 82.7485 10.184 82.9258 9.652C83.1285 9.09467 83.3818 8.63867 83.6858 8.284C84.0151 7.904 84.4078 7.714 84.8638 7.714C85.5478 7.714 86.0671 7.91667 86.4218 8.322C86.8018 8.72733 86.9918 9.22133 86.9918 9.804C86.9918 10.2853 86.9158 10.754 86.7638 11.21C86.6371 11.666 86.5231 12.1347 86.4218 12.616C86.2445 13.5787 86.0671 14.5413 85.8898 15.504C85.7378 16.4667 85.6618 17.442 85.6618 18.43C85.6618 18.7847 85.6871 19.2407 85.7378 19.798C85.7885 20.3553 85.9278 20.8493 86.1558 21.28C86.3838 21.7107 86.7765 21.926 87.3338 21.926C87.7645 21.926 88.2711 21.6473 88.8538 21.09C89.4618 20.5327 90.0951 19.8107 90.7538 18.924C91.4378 18.0373 92.1218 17.0747 92.8058 16.036C93.4898 14.972 94.1231 13.946 94.7058 12.958C95.3138 11.9447 95.8331 11.058 96.2638 10.298C96.6945 9.51267 96.9985 8.968 97.1758 8.664C97.3785 8.38533 97.5938 8.15733 97.8218 7.98C98.0498 7.80267 98.3411 7.714 98.6958 7.714C99.8865 7.714 100.596 8.27133 100.824 9.386V10.754C100.824 11.8687 100.786 12.9833 100.71 14.098C100.659 15.1873 100.634 16.2513 100.634 17.29V19.532C100.71 19.9373 100.874 20.3047 101.128 20.634C101.381 20.9633 101.609 21.2927 101.812 21.622C102.04 21.926 102.154 22.2933 102.154 22.724C102.154 23.3067 101.976 23.8007 101.622 24.206C101.267 24.6113 100.798 24.814 100.216 24.814C99.4558 24.814 98.8478 24.5607 98.3918 24.054C97.9358 23.522 97.5811 22.9013 97.3278 22.192C97.1758 21.736 96.9985 21.1533 96.7958 20.444C96.6185 19.7093 96.4411 18.9873 96.2638 18.278C95.8838 18.9367 95.4531 19.5953 94.9718 20.254C94.5158 20.8873 94.0345 21.508 93.5278 22.116C92.7171 23.1293 91.7671 24.054 90.6778 24.89C89.5885 25.726 88.4105 26.144 87.1438 26.144Z"/>
    <path d="M118.164 27.094C116.34 27.094 114.655 26.8153 113.11 26.258C111.59 25.6753 110.361 24.7633 109.424 23.522C108.487 22.2553 108.018 20.6213 108.018 18.62C108.018 17.1 108.259 15.618 108.74 14.174C109.247 12.73 109.969 11.4253 110.906 10.26C111.843 9.06933 112.971 8.132 114.288 7.448C115.605 6.73867 117.087 6.384 118.734 6.384C119.849 6.384 120.887 6.612 121.85 7.068C122.838 7.49867 123.623 8.14467 124.206 9.006C124.814 9.842 125.118 10.868 125.118 12.084C125.118 13.2493 124.877 14.364 124.396 15.428C123.915 16.492 123.256 17.442 122.42 18.278C121.584 19.114 120.634 19.7727 119.57 20.254C118.531 20.71 117.442 20.938 116.302 20.938C116.125 20.938 115.732 20.9 115.124 20.824C114.516 20.7227 114.035 20.6213 113.68 20.52C113.427 20.4693 113.224 20.368 113.072 20.216C113.021 20.1907 112.933 20.1527 112.806 20.102C112.679 20.026 112.591 19.988 112.54 19.988C112.717 20.7227 113.085 21.3433 113.642 21.85C114.225 22.3313 114.883 22.686 115.618 22.914C116.378 23.142 117.1 23.256 117.784 23.256C118.265 23.256 118.747 23.2307 119.228 23.18C119.735 23.104 120.267 23.066 120.824 23.066C121.381 23.066 121.863 23.218 122.268 23.522C122.673 23.826 122.876 24.32 122.876 25.004C122.876 25.5613 122.699 25.992 122.344 26.296C122.015 26.6 121.584 26.8027 121.052 26.904C120.545 27.0053 120.026 27.056 119.494 27.056C118.987 27.0813 118.544 27.094 118.164 27.094ZM116.302 16.53C117.062 16.53 117.809 16.3907 118.544 16.112C119.304 15.808 119.925 15.3647 120.406 14.782C120.913 14.1993 121.166 13.4773 121.166 12.616C121.166 11.8813 120.938 11.2987 120.482 10.868C120.051 10.4373 119.469 10.222 118.734 10.222C118.075 10.222 117.379 10.3993 116.644 10.754C115.909 11.1087 115.213 11.5647 114.554 12.122C113.921 12.6793 113.401 13.2873 112.996 13.946C112.591 14.5793 112.388 15.2 112.388 15.808V15.96C113.047 16.0613 113.705 16.188 114.364 16.34C115.023 16.4667 115.669 16.53 116.302 16.53Z"/>
    <path d="M138.521 27.094C137.812 27.094 137.001 27.0307 136.089 26.904C135.177 26.8027 134.29 26.6 133.429 26.296C132.568 25.992 131.846 25.536 131.263 24.928C130.706 24.32 130.427 23.522 130.427 22.534C130.427 21.8753 130.592 21.3053 130.921 20.824C131.25 20.3173 131.782 20.064 132.517 20.064C132.973 20.064 133.328 20.178 133.581 20.406C133.834 20.634 134.05 20.9127 134.227 21.242C134.43 21.5713 134.658 21.9133 134.911 22.268C135.19 22.5973 135.557 22.876 136.013 23.104C136.494 23.332 137.14 23.446 137.951 23.446C138.534 23.446 139.167 23.3827 139.851 23.256C140.56 23.104 141.168 22.838 141.675 22.458C142.182 22.078 142.435 21.5587 142.435 20.9C142.435 20.3173 142.194 19.8613 141.713 19.532C141.232 19.1773 140.611 18.8733 139.851 18.62C139.091 18.3667 138.293 18.1133 137.457 17.86C136.621 17.5813 135.823 17.2393 135.063 16.834C134.303 16.4287 133.682 15.8967 133.201 15.238C132.72 14.554 132.479 13.68 132.479 12.616C132.479 11.628 132.72 10.7793 133.201 10.07C133.682 9.36067 134.303 8.778 135.063 8.322C135.848 7.84067 136.684 7.49867 137.571 7.296C138.483 7.068 139.357 6.954 140.193 6.954C140.674 6.954 141.232 7.01733 141.865 7.144C142.498 7.24533 143.119 7.42267 143.727 7.676C144.335 7.92933 144.842 8.284 145.247 8.74C145.652 9.17067 145.855 9.71533 145.855 10.374C145.855 11.5393 145.272 12.122 144.107 12.122H143.613C142.853 11.6913 142.207 11.362 141.675 11.134C141.143 10.906 140.535 10.792 139.851 10.792C139.547 10.792 139.116 10.83 138.559 10.906C138.027 10.9567 137.546 11.096 137.115 11.324C136.684 11.552 136.469 11.9193 136.469 12.426C136.469 12.8567 136.71 13.2113 137.191 13.49C137.672 13.7687 138.293 14.0347 139.053 14.288C139.813 14.5413 140.611 14.82 141.447 15.124C142.283 15.428 143.081 15.8207 143.841 16.302C144.601 16.758 145.222 17.3407 145.703 18.05C146.184 18.7593 146.425 19.646 146.425 20.71C146.425 22.2553 146.032 23.4967 145.247 24.434C144.487 25.3713 143.499 26.0553 142.283 26.486C141.092 26.8913 139.838 27.094 138.521 27.094Z"/>
    <path d="M174.034 26.904C173.299 26.904 172.729 26.6887 172.324 26.258C171.919 25.802 171.627 25.2447 171.45 24.586C171.298 23.902 171.197 23.2053 171.146 22.496C171.121 21.7867 171.108 21.1787 171.108 20.672V16.758C171.108 15.086 171.197 13.3633 171.374 11.59C171.551 9.81667 171.653 7.92933 171.678 5.928C170.741 5.87733 170.006 5.7 169.474 5.396C168.967 5.06667 168.714 4.408 168.714 3.42C168.714 2.66 169.031 2.09 169.664 1.71C170.297 1.30467 170.994 1.05133 171.754 0.949999C172.742 0.721999 173.793 0.582666 174.908 0.532C176.048 0.455999 177.125 0.341999 178.138 0.19H178.29C179.329 0.19 180.443 0.266 181.634 0.417999C182.825 0.544666 183.977 0.810666 185.092 1.216C186.232 1.596 187.22 2.166 188.056 2.926C188.892 3.66067 189.462 4.64867 189.766 5.89V7.182C189.766 8.60067 189.411 9.94333 188.702 11.21C187.993 12.4767 187.055 13.604 185.89 14.592C184.75 15.5547 183.496 16.3147 182.128 16.872C180.785 17.4293 179.455 17.708 178.138 17.708C177.758 17.708 177.378 17.6953 176.998 17.67C176.618 17.6193 176.137 17.5813 175.554 17.556C175.579 18.7973 175.617 19.8613 175.668 20.748C175.719 21.6347 175.744 22.496 175.744 23.332C175.744 23.788 175.706 24.2947 175.63 24.852C175.579 25.4093 175.427 25.8907 175.174 26.296C174.946 26.7013 174.566 26.904 174.034 26.904ZM175.554 12.92H179.05C179.531 12.92 180.127 12.7553 180.836 12.426C181.571 12.0713 182.293 11.628 183.002 11.096C183.737 10.5387 184.345 9.956 184.826 9.348C185.333 8.71467 185.586 8.11933 185.586 7.562C185.586 6.954 185.345 6.44733 184.864 6.042C184.408 5.63667 183.876 5.33267 183.268 5.13C182.66 4.92733 182.141 4.826 181.71 4.826H176.656L176.314 5.168C176.187 6.13067 176.061 7.01733 175.934 7.828C175.807 8.61333 175.706 9.41133 175.63 10.222C175.579 11.0327 175.554 11.932 175.554 12.92Z"/>
    <path d="M200.503 26.562C200.047 26.562 199.629 26.3973 199.249 26.068C198.894 25.7387 198.717 25.2573 198.717 24.624C198.717 23.788 198.945 23.1547 199.401 22.724C199.882 22.2933 200.402 22.078 200.959 22.078C201.44 22.078 201.871 22.2553 202.251 22.61C202.631 22.9647 202.808 23.4967 202.783 24.206C202.732 24.9913 202.466 25.5867 201.985 25.992C201.529 26.372 201.035 26.562 200.503 26.562Z"/>
  </g>

  <!-- Animated portrait -->
  <g transform="translate(380, -20) scale(0.39)">
    <g id="bg-fills">
        <path id="portrait-notion-u-face-bg"
            d="M0,0C4.43933,4.059278,7.501395,8.544572,10.6875,13.625c.485332.763125.970664,1.52625,1.470703,2.3125.897774,1.411672,1.79288,2.825047,2.684326,4.240723C15.872808,21.799809,16.934309,23.401463,18,25c5.693716.910995,8.738848-.69197,13.203125-3.90625C33,20,33,20,36,20c1.666667,1.666667,3.333333,3.333333,5,5c11.384974,8.487905,25.377551,12.361756,39.421875,12.046875.836259-.018742,1.672518-.037484,2.534119-.056793c3.480284-.092317,6.958734-.204282,10.437072-.353363c16.60185-.666667,16.60185-.666667,21.583497,3.570312C116.667969,42.145996,116.667969,42.145996,118,44c.693516.834023,1.387031,1.668047,2.101563,2.527344c7.454439,11.793306,11.847026,24.201945,12.144531,38.21875.032871,1.249746.065742,2.499492.099609,3.787109.061104,2.598872.118408,5.197835.171875,7.796875.20918,7.660732.772105,14.164566,3.488281,21.31958c2.942407,7.99753,3.58354,14.984589,3.431641,23.475342-.011038,1.306787-.022075,2.613574-.033447,3.959961-.131631,9.534659-1.008877,18.914721-2.267823,28.364746-.985835,7.535015-1.403615,14.956001-1.57373,22.550293-.35266,13.228223-2.230304,25.99093-4.5625,39-.196421,1.130991-.392842,2.261982-.595215,3.427246C124.301122,273.386384,112.751731,300.500537,83.75,322.0625C81.842078,323.387679,79.924191,324.698556,78,326c-1.37391.956727-2.74759,1.913784-4.121094,2.871094-25.657471,17.69279-51.546969,26.474428-83.105468,21.445312C-13.263238,349.499884,-17.100725,348.32334,-21,347c-1.858184-.583945-1.858184-.583945-3.753906-1.179687C-35.458646,342.047422,-44.053067,335.84551,-53,329c-.971953-.738633-1.943906-1.477266-2.945312-2.238281C-61.879058,322.120748,-67.507001,317.152108,-73,312c-.821052-.762078-.821052-.762078-1.658691-1.539551-21.65456-20.242435-29.931982-43.779332-33.973633-72.832519-.248918-1.779121-.505998-3.557115-.770508-5.333985-1.993669-13.430786-3.00355-26.679656-3.130859-40.263916-.112865-6.677843-.735702-12.947269-1.978028-19.48706-1.837717-9.940065-1.909038-19.755856-1.824463-29.840088.023793-3.029483.020507-6.058092.013916-9.087647.01428-9.130988.129716-17.979774,1.895752-26.964843.480316-2.984718.475688-5.818931.426514-8.837891.467157-6.463752,3.619011-9.201945,8.300781-13.382812C-92.376316,72.437147,-83.881275,55.661524,-82,38c1.016466.039276,1.016466.039276,2.053467.079346C-58.703315,38.786796,-37.941818,37.614221,-20,25c1.034473-1.36125,1.034473-1.36125,2.089844-2.75C-16,20,-16,20,-13.589844,19.5c4.126249.796621,7.231088,3.010694,10.773438,5.1875C0.359434,26.167503,2.537834,26.244748,6,26c.663487-7.132486-1.74875-13.303763-4-20-.373828-1.122773-.747656-2.245547-1.132812-3.402344C0.581016,1.74043,0.294844,0.883203,0,0Z"
            transform="translate(238 87)" fill="#ffffff" />
        <path id="portrait-notion-u-neck-bg"
            d="M0,0c.66,0,1.32,0,2,0c.025056.785361.050112,1.570723.075928,2.379883C2.193321,6.003364,2.315386,9.626675,2.4375,13.25c.039316,1.234922.078633,2.469844.119141,3.742188C2.843973,31.732289,2.843973,31.732289,6,46c0,2.6875,0,2.6875-1,5-4.503502,2.762422-8.760668,3.633803-13.9375,4.125-.658066.073477-1.316133.146953-1.994141.222656-13.38505,1.422084-26.715349,1.814242-40.162109,1.820313-1.720337.003229-3.440674.006595-5.161011.010086-3.593634.005946-7.187245.007845-10.780884.007248-3.614309-.000081-7.22849.006768-10.842773.020508-17.864394.066789-35.693701.054786-53.527832-1.09253-1.226583-.077731-2.453167-.155463-3.716919-.23555C-155.160866,54.429688,-155.160866,54.429688,-161,50c.467715-3.196054,1.053548-6.1724,2.013184-9.261963c1.000513-3.789922,1.300174-7.073457,1.400879-10.984131.019366-.655976.038732-1.311953.058685-1.987808.059141-2.067739.105914-4.135536.152252-6.203598.03824-1.413434.077295-2.826846.117188-4.240234.095347-3.440555.179615-6.881274.257812-10.322266c4.767578,4.745605,4.767578,4.745605,6.859375,7.035156c15.038303,16.125784,36.514042,28.909029,58.791016,30.107422C-72.927512,44.760431,-58.563986,42.560299,-42,34c.619878-.310342,1.239756-.620684,1.878418-.94043C-25.437334,25.653475,-11.909745,15.047514,-1.6875,2.0625C-1.130625,1.381875,-0.57375,0.70125,0,0Z"
            transform="translate(326 420)" fill="#ffffff" />
        <path id="portrait-notion-u-left-ear-bg"
            d="M0,0C5.286825,2.59019,8.444755,7.194601,10.871094,12.417969c1.240689,3.735437,2.255089,7.526173,3.176269,11.352051.924849,3.77407,1.908465,6.94725,3.870606,10.312011c3.050688,5.788029,3.072219,12.234944,3.578125,18.648438.117224,1.33755.236132,2.674953.356689,4.012207.237893,2.65286.467922,5.305986.693604,7.959961.440247,5.037358.96655,10.063481,1.512207,15.090332.160367,1.50779.320549,3.0156.480469,4.523437.10957,1.023516.21914,2.047032.332031,3.101563-14.737066.822789-22.993557-1.742546-34.460938-11.5625-12.475964-11.976926-17.323763-28.320439-17.921386-45.136475-.214927-10.910829,1.28833-18.222066,7.444824-27.363525C-14.767707,-1.94323,-6.965799,-1.904411,0,0Z"
            transform="translate(95.1289 244.582)" fill="#ffffff" />
        <path id="portrait-notion-u-right-ear-bg"
            d="M0,0C5.321094,4.560938,8.723617,9.062017,9.407959,16.162354C10.278377,35.372286,8.002429,54.076483,-5.125,69.125c-16.672391,17.39971-16.672391,17.39971-29.144531,17.835938-7.166057.102518-7.166057.102518-9.542969-1.085938.117546-.674824.235093-1.349648.356201-2.044922c1.014594-5.941697,1.934759-11.890111,2.75708-17.861328c4.298148-31.022899,4.298148-31.022899,8.886719-46.09375.239363-.787778.478726-1.575557.725342-2.387207C-28.612681,9.685073,-25.329946,5.010464,-18.0625,0.9375C-12.030798,-1.81907,-6.227109,-2.490844,0,0Z"
            transform="translate(420.812 249.125)" fill="#ffffff" />
        <path id="portrait-notion-u-top-glasses-right-bg"
            d="M0,0C1.828125,2,1.828125,2,3.25,4c.479531.66.959063,1.32,1.453125,2c3.406638,5.253611,3.406638,5.253611,2.984375,8.125C7,16,7,16,6,18c-.66,0-1.32,0-2,0-.959387-1.502941-1.842296-3.055005-2.6875-4.625-5.736404-9.683596-12.454251-12.897716-23.191895-15.843262-13.771158-3.453095-27.70331-4.710795-41.870605-4.719238-1.096992-.012246-2.193984-.024492-3.324219-.037109C-72.50847,-7.23449,-76.888876,-7.030119,-82,-5c-2.710613.22664-5.271483.094087-8,0c2.776836-4.467084,5.456295-6.023958,10.355957-7.388916C-54.513842,-18.196939,-21.199976,-15.854161,0,0Z"
            transform="translate(365 54)" fill="#ffffff" />
        <path id="portrait-notion-u-top-glasses-left-bg"
            d="M0,0c1.640654-.030937,1.640654-.030937,3.314453-.0625C12.578189,-0.106587,20.401354,1.73988,28.9375,5.25c.495,3.465.495,3.465,1,7-3.45116,0-5.625918-.947236-8.769531-2.246094-20.960825-7.084832-55.743171-2.951951-75.671875,6.390625-1.858454.940863-3.709362,1.896608-5.558594,2.855469-.99,0-1.98,0-3,0c.297183-2.773707.916697-3.91392,2.875-5.9375C-52.506006,8.242714,-44.505997,5.656385,-35.625,3.5c.857227-.210681,1.714453-.421362,2.597656-.638428C-22.131241,0.35049,-11.143185,0.052718,0,0Z"
            transform="translate(188.062 42.75)" fill="#ffffff" />
        <path id="portrait-notion-u-glare-glasses-right-bg"
            d="M0,0c.9075.0825,1.815.165,2.75.25c0,4.378366-.390966,5.020981-2.875,8.375-.63293.868828-1.265859,1.737656-1.917969,2.632813-.72832.987421-1.45664,1.974843-2.207031,2.992187-1.296093,1.799426-2.585566,3.603443-3.873535,5.408691-.855667,1.199079-1.713316,2.396746-2.573242,3.592774-2.59618,3.617628-5.102739,7.28056-7.553223,10.998535-1.9375-.6875-1.9375-.6875-4-2-1.095675-3.070008-1.238445-4.472252.117188-7.472656.580078-.854649,1.160156-1.709297,1.757812-2.589844.643242-.951328,1.286484-1.902656,1.949219-2.882812C-4.946534,0.380503,-4.946534,0.380503,0,0Z"
            transform="translate(307.25 54.75)" fill="#ffffff" />
        <path id="portrait-notion-u-glare-glasses-left-bg"
            d="M0,0c-1.929964,6.182678-4.79424,11.576082-7.875,17.25-.529805,1.005469-1.059609,2.010938-1.605469,3.046875-.519492.959063-1.038984,1.918125-1.574218,2.90625-.469058.873018-.938116,1.746035-1.421387,2.645508C-14.129493,28.182809,-15.36233,28.982947,-18,30c-.99-.99-1.98-1.98-3-3c1.401321-6.335141,3.759327-11.823021,6.9375-17.4375.335801-.602798.671602-1.205596,1.017578-1.82666C-9.530909,1.708662,-7.048077,-0.480551,0,0Z"
            transform="translate(163 63)" fill="#ffffff" />
        <path id="portrait-notion-u-nose-bridge-glasses-bg"
            d="M0,0c1.870752-.02417,1.870752-.02417,3.779297-.048828C12.217046,-0.053216,19.811023,1.050914,27.9375,3.3125c.495,1.98.495,1.98,1,4-5.41469,2.188917-8.294432,2.012717-13.691406-.175781C4.059125,3.142725,-9.458667,5.32494,-21.0625,6.3125c.125-1.875.125-1.875,1-4C-13.508004,-0.442743,-6.992077,-0.017684,0,0Z"
            transform="translate(241.062 36.6875)" fill="#ffffff" />
        <path id="portrait-notion-u-side-glasses-left-bg"
            d="M0,0C2.550132,3.098707,4.022725,6.153404,5.5,9.875c1.332765,3.323836,2.657641,6.414009,4.375,9.5625C11.195938,22.446303,10.997435,23.917018,10,27c-1.32.33-2.64.66-4,1-4.045784-9.488327-7.076722-17.472051-6-28Z"
            transform="translate(124 87)" fill="#ffffff" />
        <path id="portrait-notion-u-side-glasses-left-bg2"
            d="M0,0c.99.33,1.98.66,3,1-.609913,4.988443-1.634744,9.601553-3.0625,14.4375-.362227,1.236211-.724453,2.472422-1.097656,3.746094C-1.437305,20.113008,-1.714453,21.042422,-2,22c-1.9375-.3125-1.9375-.3125-4-1-1.103477-3.31043-.952685-3.853606.179688-6.976562.269414-.752813.538828-1.505625.816406-2.28125.290039-.781172.580078-1.562344.878906-2.367188.282305-.788906.564609-1.577812.855469-2.390625C-1.156776,1.156776,-1.156776,1.156776,0,0Z"
            transform="translate(370 84)" fill="#ffffff" />
    </g>

    <g transform="matrix(0.1 0 0 -0.1 0 500)">
        <path
            d="M2483,4959c-93-12-262-54-418-105-300-98-392-97-599,6-54,28-111,50-126,50-36,0-84-40-113-94-18-34-22-58-22-136c0-52,3-115,7-140l6-45-56-35c-30-19-97-75-147-125-105-103-152-185-205-356-24-76-41-112-74-152-50-61-127-105-203-114-44-5-61-1-109,22-55,27-58,27-71,10-23-32-21-142,4-218c18-59,104-163,169-206c26-17,74-36,106-43s57-17,55-23c-8-22-54-35-120-33-78,3-91-7-81-61c20-117,95-220,203-280c52-30,60-38,55-57-9-35-10-95-2-134c7-32,4-37-27-60-119-86-176-285-141-489c31-175,107-322,224-433c118-111,218-153,353-146c68,3,70,2,75-22c3-14,18-66,34-117c60-191,127-302,263-435l69-68-10-297c-6-163-9-300-6-305c11-18,64-8,78,15c22,33,36,137,36,270c0,64,2,117,5,117c2,0,39-35,82-78c126-126,269-215,423-264c66-20,94-23,230-22c152,0,157,1,264,37c182,62,375,190,515,343l59,65l6-63c3-35,8-119,10-188c8-178,29-240,82-240c28,0,48,33,39,64-3,11-12,134-20,273l-14,252l82,84c87,89,163,194,198,273c12,27,38,100,59,163l37,114l94,2c114,3,184,25,275,90c156,111,266,318,295,551c14,113,4,207-30,288-24,55-91,129-132,146-21,9-28,17-24,29c4,9,12,37,18,62c11,45,13,47,100,89c93,46,140,89,135,124-3,19-12,22-78,27-124,10-143,28-56,53c66,19,196,104,232,151c27,36,54,112,54,152c0,35-25,39-80,13-70-33-108-29-147,14-44,48-57,103-47,196c5,41,9,129,9,195c0,100-4,132-24,190-49,145-120,244-215,300-52,31-160,59-197,51-26-5-29-3-34,32-21,131-45,189-110,260-103,115-246,182-384,182-42,0-90-4-108-9-28-8-38-4-100,41-232,170-452,231-710,197Zm142-347c77-19,94-40,49-60-22-11-36-9-87,10-68,25-203,31-324,15-55-8-63-7-63,7c0,51,265,69,425,28Zm677-27c215-32,357-110,410-223c12-27,14-41,5-59-14-32-24-29-41,11-19,46-82,113-125,136-54,27-250,68-390,80-147,13-238,11-306-7-27-7-63-13-79-13-29,0-29,0-10,21c10,12,30,26,44,31c93,37,328,48,492,23Zm-1200-44c55-18,69-26,74-46c3-14,4-32,0-40-4-13-10-12-38,4-58,33-157,44-332,38-249-10-368-32-484-91-58-29-72-32-72-13c0,50,184,128,370,157c41,7,82,13,90,15c8,1,85,2,170,0c128-1,167-6,222-24Zm1003-101c5-9-14-40-80-129-11-15-46-67-78-114-32-48-62-87-67-87s-17,12-27,26c-16,26-16,28,6,68c33,57,117,175,154,214c31,32,79,44,92,22Zm-1475-75c0-10-133-256-150-277-18-22-19-22-38-5-20,19-20,19-1,75c23,68,93,187,117,201c17,11,72,15,72,6Zm879-414c57-93,68-99,134-67c29,14,59,31,67,37c12,9,23,4,54-26c49-46,135-89,228-114c77-21,192-39,230-36c13,1,75,6,139,10l115,8l37-32c58-51,113-143,148-248c31-92,34-109,40-278c5-170,7-185,38-270l33-90-6-170c-3-93-14-241-25-328-13-97-17-166-12-180c10-27-27-314-65-502-44-219-89-342-171-469-129-200-527-486-768-552-80-21-292-30-394-15-88,13-219,54-296,94-149,75-455,338-551,474-57,79-98,171-129,286-48,176-92,502-99,727-2,69-11,177-20,240-23,157-24,454-2,580c9,52,16,112,16,134c0,34,8,47,69,111c138,146,231,307,239,414l4,56l147,1c115,1,163,6,226,23c109,29,230,88,265,128c16,18,36,33,44,33s45-16,82-35c72-38,111-44,121-20c8,23-15,130-43,193-13,30-24,57-24,60c0,12,88-109,129-177ZM987,2525c36-28,75-105,93-185c7-30,25-85,41-122c16-36,29-80,29-97c0-16,12-121,26-232c14-110,22-204,19-207-11-12-131-3-173,12-60,22-170,106-214,164-124,162-166,435-91,594c18,37,43,74,58,84c59,38,153,33,212-11Zm3241-40c71-64,90-192,56-380-23-128-71-221-161-316-105-110-210-159-309-144l-41,6l9,52c4,29,20,126,33,217c34,218,90,444,123,493c45,67,118,105,204,106c41,1,53-4,86-34Z" />
        <path
            d="M2935,3165c-5-2-27-6-48-10-95-16-191-186-118-210c10-3,67-1,126,5c187,17,386-16,544-91c65-30,87-37,97-28c22,18,17,42-22,116-61,117-103,147-254,184-121,29-289,46-325,34Z" />
        <path
            d="M1775,3144c-11-2-58-12-104-21-119-24-163-56-218-158-73-137-56-159,76-97c104,50,130,57,249,73c84,11,279,8,338-5c29-6,64,20,64,46c0,45-41,108-88,136-44,25-55,27-172,29-69,1-134,0-145-3Z" />
        <g id="er7dU6y09Mt6_to" transform="translate(1900.668762,2500.238285)">
            <g id="er7dU6y09Mt6_ts" transform="scale(1,1)">
                <path id="er7dU6y09Mt6"
                    d="M1817,2660c-37-29-51-82-52-195c0-119,19-181,64-208c33-19,73-22,102-7c33.072098,17.965091,53.974596,79.440661,61.822637,150.12146c6.493104,58.477995,4.050255,123.257095-7.829672,174.909048C1976.063975,2613.852282,1961.803912,2645.258436,1942,2661c-33,25-92,25-125-1Z"
                    transform="translate(-1880.668762,-2460.051025)" />
            </g>
        </g>
        <g id="er7dU6y09Mt7_to" transform="translate(3403.66614,2500.248905)">
            <g id="er7dU6y09Mt7_ts" transform="scale(1,1)">
                <path id="er7dU6y09Mt7"
                    d="M3023,2665c-36-25-57-99-57-200c0-153,36-225,111-225c84,0,118,66,118,230c0,112-14,156-59,192-26,22-84,23-113,3Z"
                    transform="translate(-3383.66614,-2460.061645)" />
        </g>
        </g>
        <path
            d="M2347,2526c-10-10-17-49-21-113-4-54-28-190-52-302-48-217-50-248-13-295c45-57,189-105,251-84c63,22,37,88-36,88-45,0-113,27-135,53-16,21-12,60,23,212c68,294,59,517-17,441Z" />
        <path
            d="M1509,2072c-79-84-97-115-79-137c7-8,18-15,26-15c20,0,80,56,114,106c48,72,53,83,39,100-20,24-34,16-100-54Z" />
        <path
            d="M1509,2072c-79-84-97-115-79-137c7-8,18-15,26-15c20,0,80,56,114,106c48,72,53,83,39,100-20,24-34,16-100-54Z"
            transform="translate(182.11981 0)" />
        <path
            d="M3232,2075c-17-14-44-46-61-71-24-37-28-51-20-65c5-11,17-19,27-19c24,1,144,136,140,157-5,29-51,28-86-2Z" />
        <path
            d="M3412,2065c-16-13-46-49-67-79-32-46-36-58-25-71c7-8,20-15,29-15c23,0,141,126,141,151c0,10-29,39-40,39-5,0-22-11-38-25Z" />
        <path id="er7dU6y09Mt13"
            d="M2961,1546c-8-10-6-19,9-38c0,0,20-26,20-26s-48-20-48-20c-26-11-70-27-98-36-190-62-558-59-738,5-66,23-96,21-96-6c0-47,116-99,254-113c39-4,148-7,241-6c146,1,186,5,284,27c74,17,136,39,178,62c61,34,67,35,83,20c22-20,49-17,64,7c15,25-17,80-65,113-43,28-71,32-88,11Z" />
        <path
            d="M823,2402c-23-3-39-34-28-52c4-6,32-22,62-36c31-13,71-40,90-60l34-37-27-28c-31-32-42-102-30-184c9-54,49-107,79-103c35,5,42,31,24,88-9,29-17,65-17,81c0,35,34,72,59,64c24-7,45,19,37,49-9,35-87,137-134,174-40,32-105,51-149,44Z" />
        <path
            d="M4094,2369c-78-23-209-185-202-251c3-30,6-33,36-33c18,0,37-7,42-15c15-23,12-83-6-108-19-27-15-61,9-76c21-13,42-2,71,38c31,41,30,156-3,212l-24,42l29,36c27,34,54,51,116,75c35,13,51,43,35,64-16,20-64,28-103,16Z" />
    </g>
    <path
        d="M171,161.171078q15.8-20.700872,40.6-20.700872t33.1,20.700872Q246.253882,168.4,239.426941,170.3c-6.826941,1.9-.684725-20.343842-27.384726-20.343842s-31.442217,10.743842-31.442217,17.643842-13.811976,3.042156-9.599998-6.428922Z"
        transform="matrix(0.999939 0.011033 -0.011033 0.999939 108.925085 82.713607)" stroke="rgba(63,87,135,0)" />
    <path
        d="M171,161.171078q15.8-20.700872,40.6-20.700872t33.1,20.700872Q246.253882,168.4,239.426941,170.3c-6.826941,1.9-1.223064-21.078332-27.923065-21.078332s-30.903878,11.478332-30.903878,18.378332-13.811976,3.042156-9.599998-6.428922Z"
        transform="matrix(-1.004444 -0.011082 -0.011033 0.999939 392.817015 88.131348)" stroke="rgba(63,87,135,0)" />
    <path d="" fill="none" stroke="#3f5787" />
    <path d="" fill="none" stroke="#3f5787" />
    <path d="" fill="none" stroke="#3f5787" />
    <path d="" fill="none" stroke="#3f5787" />
    <path d="" fill="none" stroke="#3f5787" />
    <path d="" fill="none" stroke="#3f5787" />
    <path d="" fill="none" stroke="#3f5787" />
    <path d="" fill="none" stroke="#3f5787" />
  </g>
</svg>
