<svg width="70" height="27" viewBox="0 0 70 27" fill="none" xmlns="http://www.w3.org/2000/svg">
<path d="M3.95028 0L3.97857 26.1818L0.0282894 26.1861L0 0.00426827L3.95028 0Z" fill="white"/>
<path d="M26.8269 26.5918C25.5826 26.5931 24.4573 26.3642 23.4511 25.9051C22.445 25.4374 21.6473 24.7607 21.0583 23.875C20.4778 22.9893 20.1869 21.9029 20.1855 20.616C20.1843 19.508 20.3964 18.5959 20.8217 17.8795C21.2471 17.1631 21.8218 16.5958 22.5457 16.1774C23.2697 15.759 24.079 15.4427 24.9737 15.2287C25.8684 15.0147 26.7801 14.8518 27.709 14.74C28.885 14.6023 29.8394 14.4905 30.5722 14.4045C31.3051 14.3099 31.8376 14.1602 32.1698 13.9553C32.5019 13.7504 32.6678 13.4178 32.6673 12.9576L32.6672 12.8681C32.666 11.7517 32.3497 10.8869 31.7183 10.274C31.0955 9.66102 30.1662 9.3552 28.9304 9.35654C27.6435 9.35793 26.6296 9.64454 25.8887 10.2164C25.1564 10.7797 24.65 11.4066 24.3695 12.0973L20.7762 11.283C21.2011 10.0893 21.8222 9.12558 22.6396 8.39174C23.4655 7.64937 24.4152 7.11141 25.4887 6.77787C26.5622 6.4358 27.6913 6.26413 28.8759 6.26285C29.66 6.262 30.4911 6.35485 31.3691 6.5414C32.2557 6.71942 33.0828 7.05091 33.8503 7.53588C34.6264 8.02084 35.2621 8.71475 35.7574 9.61763C36.2527 10.512 36.5011 11.6751 36.5027 13.1069L36.5168 26.1466L32.7838 26.1507L32.7809 23.466L32.6275 23.4662C32.3809 23.9608 32.0106 24.447 31.5168 24.9248C31.023 25.4026 30.3885 25.7996 29.6133 26.1158C28.8381 26.4319 27.9093 26.5906 26.8269 26.5918ZM27.6545 23.5227C28.7114 23.5216 29.6145 23.3118 30.3641 22.8934C31.1222 22.4749 31.6968 21.9288 32.0882 21.2551C32.488 20.5729 32.6875 19.844 32.6867 19.0684L32.6839 16.5371C32.5477 16.6737 32.2836 16.8018 31.8917 16.9215C31.5083 17.0327 31.0695 17.1312 30.5753 17.217C30.081 17.2942 29.5996 17.3672 29.1309 17.4359C28.6622 17.496 28.2702 17.5476 27.9549 17.5906C27.2136 17.6851 26.5362 17.8435 25.9228 18.0658C25.3179 18.288 24.8325 18.6081 24.4664 19.0261C24.1089 19.4356 23.9305 19.9813 23.9313 20.6631C23.9323 21.6091 24.2825 22.3246 24.9819 22.8097C25.6813 23.2862 26.5721 23.5239 27.6545 23.5227Z" fill="white"/>
<path d="M42.688 26.14L42.6668 6.50363L46.3358 6.49966L46.3393 9.69568L46.5822 9.69542C46.9901 8.61259 47.6582 7.76812 48.5865 7.162C49.5149 6.54736 50.6267 6.23934 51.9222 6.23794C53.2347 6.23653 54.3345 6.54216 55.2215 7.15483C56.117 7.7675 56.7785 8.61054 57.2058 9.68394L57.4103 9.68372C57.8779 8.63492 58.6228 7.79889 59.6448 7.17562C60.6669 6.54384 61.8853 6.22718 63.3 6.22565C65.0813 6.22373 66.535 6.78039 67.6612 7.89565C68.7959 9.01091 69.3645 10.6935 69.367 12.9435L69.3812 26.1111L65.5587 26.1153L65.5449 13.3056C65.5435 11.9761 65.1802 11.0134 64.4551 10.4176C63.7301 9.82178 62.8647 9.52442 61.859 9.52551C60.6147 9.52685 59.6478 9.91142 58.9582 10.6792C58.2687 11.4385 57.9246 12.4147 57.9259 13.6079L57.9394 26.1235L54.1298 26.1276L54.1157 13.0751C54.1145 12.0097 53.7812 11.1536 53.1157 10.5065C52.4503 9.85953 51.5849 9.53661 50.5195 9.53776C49.7951 9.53854 49.1263 9.73102 48.513 10.1152C47.9083 10.4909 47.4188 11.0155 47.0446 11.6892C46.6788 12.3629 46.4964 13.143 46.4974 14.0293L46.5105 26.1358L42.688 26.14Z" fill="white"/>
</svg>
