<?xml version="1.0" encoding="UTF-8"?>
<svg version="1.1" xmlns="http://www.w3.org/2000/svg" width="500" height="500">
<path d="M0 0 C1.47907837 0.00797607 1.47907837 0.00797607 2.98803711 0.01611328 C10.48856757 0.11407838 17.81915293 0.38722893 24.83984375 3.2578125 C27.36062672 4.24437471 29.7257078 4.7284206 32.375 5.25 C37.55415303 7.04651871 42.93064607 8.99080712 47.375 12.25 C47.375 12.91 47.375 13.57 47.375 14.25 C48.16197266 14.35828125 48.16197266 14.35828125 48.96484375 14.46875 C52.38905963 15.57870652 55.05566876 17.65589091 57.9375 19.75 C63.46799498 24.11409293 63.46799498 24.11409293 70.1875 24.83203125 C71.239375 24.63996094 72.29125 24.44789062 73.375 24.25 C89.19514048 22.96671733 101.89297054 27.57471827 114.1015625 37.45703125 C122.79636607 44.98483316 129.61776602 53.23530972 130.62109375 65.1796875 C130.62445383 67.55190447 130.5596372 69.88561807 130.375 72.25 C131.69951172 72.14558594 131.69951172 72.14558594 133.05078125 72.0390625 C145.1950452 71.49120097 151.87662755 75.00792582 160.875 82.875 C163.69261903 85.48221241 166.258625 88.03473798 168.375 91.25 C168.375 91.91 168.375 92.57 168.375 93.25 C169.035 93.58 169.695 93.91 170.375 94.25 C178.43161791 108.27569109 180.81956911 128.18166439 177.85546875 144.02734375 C177.65566406 144.74019531 177.45585937 145.45304688 177.25 146.1875 C175.46799425 152.65363514 177.32684459 158.91180717 180 164.875 C182.61105515 167.48605515 184.4556538 168.27288267 188.15234375 168.5078125 C191.56734294 168.1116966 194.30433817 166.69870719 197.296875 165.0625 C199.76931217 164.09583283 200.9188809 164.36491204 203.375 165.25 C204.46583574 170.59509514 204.50451361 174.19240518 202.375 179.25 C200.27247591 182.16293096 197.91005367 184.70975155 195.375 187.25 C194.8490625 187.78753906 194.323125 188.32507813 193.78125 188.87890625 C188.71169249 193.63782911 182.611286 196.31672714 176.375 199.25 C174.3726852 200.24535695 172.37202385 201.24406971 170.375 202.25 C171.67824219 202.32347656 171.67824219 202.32347656 173.0078125 202.3984375 C174.16023438 202.47320312 175.31265625 202.54796875 176.5 202.625 C177.63695312 202.69460937 178.77390625 202.76421875 179.9453125 202.8359375 C183.32893616 203.24443876 186.19112441 204.05967569 189.375 205.25 C189.375 206.9 189.375 208.55 189.375 210.25 C188.715 210.25 188.055 210.25 187.375 210.25 C187.13265625 210.85714844 186.8903125 211.46429688 186.640625 212.08984375 C185.11056514 214.7013348 183.79517996 215.43653992 181.125 216.8125 C180.32449219 217.23015625 179.52398437 217.6478125 178.69921875 218.078125 C177.93222656 218.46484375 177.16523438 218.8515625 176.375 219.25 C175.240625 219.848125 174.10625 220.44625 172.9375 221.0625 C170.375 222.25 170.375 222.25 168.375 222.25 C168.18164062 222.84167969 167.98828125 223.43335938 167.7890625 224.04296875 C166.43085281 228.1646645 165.05449415 232.2450524 163.375 236.25 C165.355 236.91 167.335 237.57 169.375 238.25 C169.375 238.91 169.375 239.57 169.375 240.25 C170.24125 240.5903125 170.24125 240.5903125 171.125 240.9375 C177.55504417 244.6883591 180.38624262 252.43099033 182.375 259.25 C182.99715414 264.37799633 182.98764922 269.40367788 182.875 274.5625 C182.87757813 275.88056641 182.88015625 277.19863281 182.8828125 278.55664062 C182.81559324 285.21470845 182.5850117 290.37742046 179.375 296.25 C178.68359478 299.02888613 178.68359478 299.02888613 178.375 301.25 C177.715 301.25 177.055 301.25 176.375 301.25 C176.375 302.9 176.375 304.55 176.375 306.25 C175.715 306.25 175.055 306.25 174.375 306.25 C174.21257812 307.33667969 174.21257812 307.33667969 174.046875 308.4453125 C171.41822721 319.41838876 161.91913636 329.45850699 153.375 336.25 C152.6634375 337.0234375 152.6634375 337.0234375 151.9375 337.8125 C144.19061842 344.93963105 131.12920607 345.52110426 121.15234375 346.0390625 C118.75780942 346.22092587 116.67171281 346.57806004 114.375 347.25 C114.26542969 347.89066406 114.15585937 348.53132813 114.04296875 349.19140625 C113.05019751 354.60725588 111.62863314 359.20186176 109.375 364.25 C108.87958338 365.93280103 108.40140976 367.62074213 107.9375 369.3125 C106.71699156 373.55216089 104.96846374 376.65261481 102.375 380.25 C101.9109375 381.5184375 101.9109375 381.5184375 101.4375 382.8125 C100.33073444 385.3515504 99.00259398 386.7905369 97 388.66796875 C94.83622 390.77453342 92.83346162 393.00633373 90.8125 395.25 C89.69681641 396.4875 89.69681641 396.4875 88.55859375 397.75 C87.0848082 399.43733945 85.66041878 401.16893809 84.28515625 402.9375 C82.375 405.25 82.375 405.25 79.375 407.25 C78.94352292 409.30979911 78.94352292 409.30979911 79.046875 411.6796875 C79.05203125 412.55753906 79.0571875 413.43539063 79.0625 414.33984375 C79.0934375 415.71849609 79.0934375 415.71849609 79.125 417.125 C79.13015625 418.03636719 79.1353125 418.94773437 79.140625 419.88671875 C79.13760252 424.61731386 79.13760252 424.61731386 79.88378906 429.26318359 C80.4361254 431.49723584 80.47232152 433.43518739 80.4375 435.734375 C80.42976563 436.58773438 80.42203125 437.44109375 80.4140625 438.3203125 C80.38824855 440.09114917 80.36221094 441.86198259 80.3359375 443.6328125 C80.28800154 448.95370353 80.63298914 453.98172291 81.375 459.25 C81.44903678 461.58215844 81.47015886 463.91860788 81.375 466.25 C80.375 467.25 80.375 467.25 76.5625 467.625 C72.89017019 468.03448102 71.29255236 468.97066222 68.375 471.25 C46.59613715 477.8229844 20.980857 475.56924857 -1.56591797 475.51074219 C-5.97666896 475.49938394 -10.3871776 475.50611111 -14.79792023 475.51761627 C-31.54968744 475.55472472 -48.26219703 475.4296536 -64.984375 474.359375 C-66.21391907 474.28189026 -67.44346313 474.20440552 -68.71026611 474.12457275 C-87.18072054 472.79928189 -87.18072054 472.79928189 -94.625 468.25 C-96.95699388 468.17094936 -99.29332622 468.16201231 -101.625 468.25 C-102.285 467.92 -102.945 467.59 -103.625 467.25 C-103.65183987 464.27077407 -103.67176037 461.29178705 -103.6875 458.3125 C-103.69587891 457.46236328 -103.70425781 456.61222656 -103.71289062 455.73632812 C-103.71611328 454.92744141 -103.71933594 454.11855469 -103.72265625 453.28515625 C-103.73051147 452.16185913 -103.73051147 452.16185913 -103.73852539 451.01586914 C-103.625 449.25 -103.625 449.25 -102.625 448.25 C-102.09397172 442.57812641 -101.85455393 436.89805778 -101.62792969 431.20678711 C-101.54331516 429.29246426 -101.44041067 427.37885373 -101.31835938 425.46655273 C-100.32997968 414.28933287 -100.32997968 414.28933287 -103.50756836 403.85644531 C-105.74466054 401.37338054 -108.0230068 399.33708617 -110.625 397.25 C-111.92403646 395.81673179 -113.20006969 394.36178166 -114.4375 392.875 C-116.15578076 390.8920645 -117.83719983 389.05028251 -119.75 387.25 C-124.52228734 382.15956018 -129.625 374.36803502 -129.625 367.25 C-130.285 367.25 -130.945 367.25 -131.625 367.25 C-131.81835938 366.59773438 -132.01171875 365.94546875 -132.2109375 365.2734375 C-132.47132813 364.39945312 -132.73171875 363.52546875 -133 362.625 C-133.27070313 361.71492188 -133.54140625 360.80484375 -133.8203125 359.8671875 C-134.45246378 357.81116149 -135.15153594 355.77569937 -135.875 353.75 C-136.625 351.25 -136.625 351.25 -135.625 349.25 C-136.285 349.25 -136.945 349.25 -137.625 349.25 C-137.955 347.27 -138.285 345.29 -138.625 343.25 C-139.35203125 343.27320313 -140.0790625 343.29640625 -140.828125 343.3203125 C-151.20308988 343.50652982 -160.83164154 343.17595896 -169.625 337.25 C-170.285 336.92 -170.945 336.59 -171.625 336.25 C-171.625 335.59 -171.625 334.93 -171.625 334.25 C-172.4603125 333.8478125 -172.4603125 333.8478125 -173.3125 333.4375 C-178.16607088 330.94512576 -181.99383936 328.39989788 -185.625 324.25 C-185.625 323.26 -185.625 322.27 -185.625 321.25 C-186.615 320.92 -187.605 320.59 -188.625 320.25 C-188.9971042 318.92696283 -189.33130173 317.59262065 -189.625 316.25 C-190.285 315.92 -190.945 315.59 -191.625 315.25 C-197.98647417 307.15751246 -200.64174968 297.16625162 -202.625 287.25 C-202.79322266 286.6636377 -202.96144531 286.07727539 -203.13476562 285.47314453 C-204.1727626 280.765973 -203.89600127 275.86252027 -203.9375 271.0625 C-203.96650391 269.96357422 -203.99550781 268.86464844 -204.02539062 267.73242188 C-204.08096618 260.56317565 -203.01305997 255.54223504 -199.625 249.25 C-199.315625 248.38375 -199.00625 247.5175 -198.6875 246.625 C-196.64405535 242.05730019 -194.33707033 238.12505817 -189.8125 235.8125 C-189.090625 235.626875 -188.36875 235.44125 -187.625 235.25 C-186.77300262 230.51668125 -186.79578514 226.94888422 -187.625 222.25 C-187.71527385 218.91488258 -187.68432763 215.58553128 -187.625 212.25 C-188.34429687 211.99992188 -189.06359375 211.74984375 -189.8046875 211.4921875 C-192.88828807 210.13403656 -195.13567308 208.49364414 -197.75 206.375 C-199.02230469 205.35792969 -199.02230469 205.35792969 -200.3203125 204.3203125 C-202.44570521 202.41106142 -204.08772617 200.65136239 -205.625 198.25 C-205.625 197.59 -205.625 196.93 -205.625 196.25 C-206.285 196.25 -206.945 196.25 -207.625 196.25 C-207.625 195.26 -207.625 194.27 -207.625 193.25 C-208.285 193.25 -208.945 193.25 -209.625 193.25 C-211.82099193 188.03451916 -212.30930858 182.845229 -211.625 177.25 C-209.625 175.25 -209.625 175.25 -207.1640625 175.08984375 C-206.20242187 175.12207031 -205.24078125 175.15429688 -204.25 175.1875 C-200.81636027 175.29393358 -197.92174206 175.25777186 -194.625 174.25 C-196.97209782 170.72935328 -197.89495464 170.62086887 -201.8125 169.4375 C-212.01946005 165.91097534 -220.59598219 156.72776433 -225.625 147.25 C-226.06285549 144.95627996 -226.30614689 142.72846498 -226.44921875 140.3984375 C-226.6250858 138.24895127 -227.07966473 136.33179575 -227.625 134.25 C-227.92176561 130.39204712 -227.31805913 127.73017709 -225.625 124.25 C-224.635 123.26 -224.635 123.26 -223.625 122.25 C-221.04071919 122.52202956 -219.0883833 122.98405828 -216.828125 124.28125 C-211.52837083 126.61163836 -204.60752494 125.74563123 -199.125 124.375 C-198.3 124.00375 -197.475 123.6325 -196.625 123.25 C-195.944375 123.0025 -195.26375 122.755 -194.5625 122.5 C-191.62134267 120.60247914 -189.82223822 117.96763675 -187.625 115.25 C-186.965 114.92 -186.305 114.59 -185.625 114.25 C-183.14007741 109.92142516 -181.43196707 105.89188072 -180.1875 101.0625 C-177.19867474 89.53644513 -172.74143499 78.84854697 -165.625 69.25 C-164.965 69.25 -164.305 69.25 -163.625 69.25 C-163.625 68.59 -163.625 67.93 -163.625 67.25 C-156.90798404 59.92234623 -148.87510751 53.75007167 -140.625 48.25 C-140.24084937 45.74672141 -140.24084937 45.74672141 -140.40234375 42.83203125 C-140.42103516 41.74212891 -140.43972656 40.65222656 -140.45898438 39.52929688 C-140.49314453 38.38525391 -140.52730469 37.24121094 -140.5625 36.0625 C-140.92926148 22.4455046 -140.92926148 22.4455046 -138.625 16.25 C-137.965 16.25 -137.305 16.25 -136.625 16.25 C-136.625 14.93 -136.625 13.61 -136.625 12.25 C-132.48873477 7.91196574 -129.79980341 6.44836156 -123.625 6.25 C-120.84999282 7.1738056 -118.40824676 8.55176859 -115.875 10 C-110.23092823 13.03987265 -104.95692253 15.34196329 -98.6640625 16.77734375 C-96.625 17.25 -96.625 17.25 -94.625 18.25 C-87.30575909 19.18982471 -80.63656632 19.9143952 -73.625 17.25 C-72.27475509 16.90112015 -70.92025037 16.56842176 -69.5625 16.25 C-62.51163541 14.58045067 -55.75748038 11.85656448 -48.96484375 9.37109375 C-46.15444088 8.42771875 -43.53091726 7.77749227 -40.625 7.25 C-38.78987895 6.7777262 -36.95664333 6.29808676 -35.125 5.8125 C-29.62867079 4.41294028 -24.15651123 3.50874681 -18.53515625 2.77734375 C-15.66947176 2.38724776 -15.66947176 2.38724776 -13.41015625 1.20703125 C-9.00722274 -0.30589822 -4.62076303 -0.04404775 0 0 Z M-192.625 171.25 C-192.625 171.91 -192.625 172.57 -192.625 173.25 C-191.965 172.92 -191.305 172.59 -190.625 172.25 C-191.285 171.92 -191.945 171.59 -192.625 171.25 Z M115.375 344.25 C115.045 344.91 114.715 345.57 114.375 346.25 C115.035 346.25 115.695 346.25 116.375 346.25 C116.045 345.59 115.715 344.93 115.375 344.25 Z " fill="#010101" transform="translate(259.625,1.75)"/>
<path d="M0 0 C4.43933001 4.05927808 7.50139519 8.54457164 10.6875 13.625 C11.17283203 14.388125 11.65816406 15.15125 12.15820312 15.9375 C13.05597688 17.34917183 13.95108257 18.76254691 14.8425293 20.17822266 C15.87280826 21.79980917 16.93430881 23.40146322 18 25 C23.69371614 25.91099458 26.7388476 24.30802973 31.203125 21.09375 C33 20 33 20 36 20 C37.66666667 21.66666667 39.33333333 23.33333333 41 25 C52.38497448 33.48790508 66.37755098 37.36175555 80.421875 37.046875 C81.25813416 37.02813324 82.09439331 37.00939148 82.95599365 36.99008179 C86.43627827 36.8977649 89.91472753 36.7857996 93.39306641 36.63671875 C109.99491614 35.97005217 109.99491614 35.97005217 114.9765625 40.20703125 C116.66796875 42.14599609 116.66796875 42.14599609 118 44 C118.69351563 44.83402344 119.38703125 45.66804688 120.1015625 46.52734375 C127.55600214 58.32064953 131.94858851 70.72928945 132.24609375 84.74609375 C132.27896484 85.99583984 132.31183594 87.24558594 132.34570312 88.53320312 C132.40680716 91.13207462 132.46411067 93.73103831 132.51757812 96.33007812 C132.72675833 103.99080971 133.28968328 110.49464384 136.00585938 117.6496582 C138.94826612 125.64718817 139.5893988 132.6342466 139.4375 141.125 C139.4264624 142.43178711 139.4154248 143.73857422 139.40405273 145.08496094 C139.27242205 154.61961998 138.39517625 163.99968216 137.13623047 173.44970703 C136.15039452 180.98472211 135.73261487 188.40570809 135.5625 196 C135.20984011 209.22822292 133.33219601 221.99092978 131 235 C130.8035791 236.13099121 130.6071582 237.26198242 130.40478516 238.42724609 C124.30112193 273.38638428 112.75173129 300.50053695 83.75 322.0625 C81.84207786 323.3876794 79.92419099 324.69855603 78 326 C76.62608998 326.95672673 75.25241024 327.91378421 73.87890625 328.87109375 C48.22143516 346.56388407 22.33193702 355.34552158 -9.2265625 350.31640625 C-13.2632379 349.4998836 -17.10072454 348.32334002 -21 347 C-22.85818359 346.41605469 -22.85818359 346.41605469 -24.75390625 345.8203125 C-35.45864624 342.04742187 -44.05306671 335.84550998 -53 329 C-53.97195312 328.26136719 -54.94390625 327.52273438 -55.9453125 326.76171875 C-61.87905835 322.12074825 -67.50700112 317.15210755 -73 312 C-73.82105225 311.23792236 -73.82105225 311.23792236 -74.65869141 310.46044922 C-96.31325074 290.21801368 -104.59067345 266.68111663 -108.63232422 237.62792969 C-108.88124242 235.84880914 -109.13832154 234.07081458 -109.40283203 232.29394531 C-111.39650112 218.8631592 -112.40638222 205.61428866 -112.53369141 192.0300293 C-112.64655636 185.35218598 -113.26939283 179.08275989 -114.51171875 172.54296875 C-116.34943602 162.60290351 -116.42075748 152.78711274 -116.33618164 142.70288086 C-116.31238924 139.67339757 -116.31567486 136.64478892 -116.32226562 133.61523438 C-116.30798643 124.48424597 -116.19254985 115.63545967 -114.42651367 106.65039062 C-113.94619847 103.66567291 -113.95082556 100.83145951 -114 97.8125 C-113.53284313 91.34874766 -110.38098872 88.61055484 -105.69921875 84.4296875 C-92.37631555 72.43714656 -83.88127516 55.66152356 -82 38 C-80.98353394 38.03927612 -80.98353394 38.03927612 -79.9465332 38.0793457 C-58.70331465 38.78679628 -37.9418182 37.61422105 -20 25 C-18.96552734 23.63875 -18.96552734 23.63875 -17.91015625 22.25 C-16 20 -16 20 -13.58984375 19.5 C-9.46359511 20.29662115 -6.35875566 22.51069353 -2.81640625 24.6875 C0.35943373 26.1675031 2.53783437 26.24474809 6 26 C6.66348706 18.86751412 4.25125013 12.69623672 2 6 C1.62617188 4.87722656 1.25234375 3.75445312 0.8671875 2.59765625 C0.58101563 1.74042969 0.29484375 0.88320312 0 0 Z " fill="#FBFBFB" transform="translate(238,87)"/>
<path d="M0 0 C0.66 0 1.32 0 2 0 C2.02505615 0.78536133 2.0501123 1.57072266 2.07592773 2.37988281 C2.19332087 6.00336428 2.31538592 9.62667468 2.4375 13.25 C2.47681641 14.48492187 2.51613281 15.71984375 2.55664062 16.9921875 C2.84397329 31.73228856 2.84397329 31.73228856 6 46 C6 48.6875 6 48.6875 5 51 C0.4964984 53.76242183 -3.76066828 54.63380294 -8.9375 55.125 C-9.59556641 55.19847656 -10.25363281 55.27195312 -10.93164062 55.34765625 C-24.31669112 56.7697399 -37.64699018 57.16189762 -51.09375 57.16796875 C-52.81408717 57.17119847 -54.53442409 57.17456367 -56.25476074 57.17805481 C-59.84839511 57.18400102 -63.44200561 57.18589978 -67.03564453 57.18530273 C-70.64995395 57.1852221 -74.26413492 57.19207053 -77.87841797 57.20581055 C-95.74281238 57.27260022 -113.57211866 57.26059688 -131.40625 56.11328125 C-132.63283325 56.03554977 -133.8594165 55.9578183 -135.12316895 55.87773132 C-155.16086615 54.42968775 -155.16086615 54.42968775 -161 50 C-160.53228483 46.80394637 -159.9464517 43.8276003 -158.98681641 40.73803711 C-157.98630279 36.94811529 -157.68664155 33.66458 -157.5859375 29.75390625 C-157.56657135 29.09792953 -157.5472052 28.44195282 -157.5272522 27.76609802 C-157.46811091 25.69835872 -157.42133771 23.63056171 -157.375 21.5625 C-157.33675967 20.14906606 -157.29770455 18.73565391 -157.2578125 17.32226562 C-157.16246548 13.88171148 -157.07819713 10.44099161 -157 7 C-152.23242188 11.74560547 -152.23242188 11.74560547 -150.140625 14.03515625 C-135.10232168 30.16094018 -113.62658322 42.94418528 -91.34960938 44.14257812 C-72.92751219 44.7604308 -58.56398586 42.5602986 -42 34 C-41.38012207 33.6896582 -40.76024414 33.37931641 -40.12158203 33.05957031 C-25.43733438 25.65347478 -11.90974526 15.04751425 -1.6875 2.0625 C-1.130625 1.381875 -0.57375 0.70125 0 0 Z " fill="#FAFAFA" transform="translate(326,420)"/>
<path d="M0 0 C5.2868253 2.59018958 8.44475506 7.19460074 10.87109375 12.41796875 C12.11178289 16.15340567 13.12618262 19.94414167 14.04736328 23.77001953 C14.97221163 27.54409012 15.95582791 30.7172698 17.91796875 34.08203125 C20.96865748 39.87006001 20.99018759 46.31697485 21.49609375 52.73046875 C21.61331774 54.06801873 21.73222643 55.40542208 21.8527832 56.74267578 C22.09067623 59.39553618 22.32070522 62.04866168 22.54638672 64.70263672 C22.98663419 69.73999467 23.512937 74.7661183 24.05859375 79.79296875 C24.21896093 81.30075883 24.37914294 82.80856863 24.5390625 84.31640625 C24.64863281 85.33992188 24.75820312 86.3634375 24.87109375 87.41796875 C10.13402792 88.24075779 1.8775367 85.67542271 -9.58984375 75.85546875 C-22.0658081 63.87854297 -26.91360725 47.53503045 -27.51123047 30.71899414 C-27.72615659 19.80816502 -26.22289954 12.49692848 -20.06640625 3.35546875 C-14.76770717 -1.94323033 -6.96579925 -1.90441117 0 0 Z " fill="#F9F9F9" transform="translate(95.12890625,244.58203125)"/>
<path d="M0 0 C5.32109405 4.56093776 8.7236166 9.06201713 9.40795898 16.16235352 C10.27837741 35.3722858 8.00242934 54.07648344 -5.125 69.125 C-21.79739095 86.52471002 -21.79739095 86.52471002 -34.26953125 86.9609375 C-41.43558762 87.06345619 -41.43558762 87.06345619 -43.8125 85.875 C-43.69495361 85.20017578 -43.57740723 84.52535156 -43.45629883 83.83007812 C-42.44170549 77.88838136 -41.52154036 71.93996666 -40.69921875 65.96875 C-36.40107105 34.945851 -36.40107105 34.945851 -31.8125 19.875 C-31.57313721 19.08722168 -31.33377441 18.29944336 -31.0871582 17.48779297 C-28.61268076 9.68507273 -25.32994585 5.01046416 -18.0625 0.9375 C-12.03079817 -1.81906962 -6.22710902 -2.49084361 0 0 Z " fill="#F8F8F8" transform="translate(420.8125,249.125)"/>
<path d="M0 0 C1.93782349 0.01208496 1.93782349 0.01208496 3.91479492 0.02441406 C16.88371548 0.2924971 33.75757377 1.96601966 44.01660156 11.07568359 C48.64330401 15.91702688 52.11214829 22.27822701 54.3125 28.5625 C53.97265625 31.4296875 53.97265625 31.4296875 53.3125 33.5625 C48.64331976 33.2441468 44.99007607 32.11026499 40.6875 30.25 C28.37723845 24.9345554 17.01751024 22.30432807 3.6640625 22.5703125 C2.06641231 22.58780193 0.46875569 22.60471272 -1.12890625 22.62109375 C-3.61102408 22.65221284 -6.09281462 22.68805975 -8.57470703 22.73388672 C-10.99515973 22.77610116 -13.41521853 22.79960481 -15.8359375 22.8203125 C-16.57967621 22.83893341 -17.32341492 22.85755432 -18.08969116 22.8767395 C-23.17507481 22.90214383 -23.17507481 22.90214383 -25.67431641 21.24560547 C-26.6875 19.5625 -26.6875 19.5625 -26.75 16.375 C-25.03192435 10.21014033 -21.24576863 4.83602433 -15.75610352 1.35864258 C-10.79765626 -0.54971296 -5.23253212 -0.06033283 0 0 Z " fill="#050505" transform="translate(300.6875,183.4375)"/>
<path d="M0 0 C0.7523291 -0.01369629 1.5046582 -0.02739258 2.27978516 -0.04150391 C9.07725251 0.01429958 15.37907861 1.36478233 20.6875 5.75 C25.66814304 11.90255906 25.66814304 11.90255906 26.125 16.5625 C25.8125 19.375 25.8125 19.375 23.8125 21.375 C20.87353516 21.55444336 20.87353516 21.55444336 17.1015625 21.46484375 C15.7070434 21.44132567 14.31251128 21.41856953 12.91796875 21.39648438 C12.18626465 21.38190186 11.45456055 21.36731934 10.70068359 21.35229492 C-7.40480702 21.03393516 -24.43163509 20.88796573 -40.72460938 29.76953125 C-43.77020347 31.41530593 -45.65446594 32.42262985 -49.16015625 32.109375 C-49.82917969 31.86703125 -50.49820313 31.6246875 -51.1875 31.375 C-50.35717877 23.06127731 -47.04474616 15.29787039 -41.12109375 9.2734375 C-29.87623933 0.61041872 -13.70939022 0.12365656 0 0 Z " fill="#040404" transform="translate(192.1875,184.625)"/>
<path d="M0 0 C5.13175587 0.79827314 8.63346047 3.96370058 11.8125 7.9375 C12.99881648 10.9032912 12.75780014 12.42972683 11.8125 15.4375 C9.5 16.125 9.5 16.125 6.8125 16.4375 C5.14453125 14.95703125 5.14453125 14.95703125 3.8125 13.4375 C3.27625 13.81261719 2.74 14.18773437 2.1875 14.57421875 C-16.95460776 27.0732595 -39.14124684 26.88807518 -61.1875 26.4375 C-62.0134668 26.42348145 -62.83943359 26.40946289 -63.69042969 26.39501953 C-74.74614367 26.15786689 -88.77631783 25.46284813 -97.1875 17.4375 C-98.0625 14.75 -98.0625 14.75 -98.1875 12.4375 C-97.8575 12.1075 -97.5275 11.7775 -97.1875 11.4375 C-90.91612586 12.07017331 -85.04796903 13.78572985 -79.00390625 15.5 C-55.10204539 21.3714909 -24.29603974 19.40189776 -2.1875 8.4375 C-2.1875 5.97471199 -3.04202863 4.58525881 -4.1875 2.4375 C-2.1875 0.4375 -2.1875 0.4375 0 0 Z " fill="#080808" transform="translate(299.1875,343.5625)"/>
<path d="M0 0 C2.625 0.375 2.625 0.375 5 1 C10.67259374 19.22669464 3.00666768 42.13242792 -1 60 C-1.67012422 63.2140814 -1.67012422 63.2140814 -1 66 C3.39038436 70.39038436 8.27750015 70.73672643 14.29296875 71.41015625 C17.21413405 72.04665836 18.29754339 72.57045255 20 75 C19.8125 77.625 19.8125 77.625 19 80 C13.97594657 82.51202671 7.15328859 81.63719764 1.9375 80.09375 C-4.53569148 77.3496797 -8.80121844 74.39756312 -12 68 C-12.49198211 60.26318449 -10.96432869 53.42741751 -9.125 45.9375 C-8.85558594 44.80505859 -8.58617187 43.67261719 -8.30859375 42.50585938 C-6.26724642 33.95709507 -6.26724642 33.95709507 -5.39355469 30.828125 C-3.49504141 23.9948861 -3.25897051 17.00955768 -2.7890625 9.9609375 C-2.71429688 8.96578125 -2.63953125 7.970625 -2.5625 6.9453125 C-2.50191406 6.04312988 -2.44132813 5.14094727 -2.37890625 4.21142578 C-2 2 -2 2 0 0 Z " fill="#090909" transform="translate(235,246)"/>
<path d="M0 0 C2.95503201 0.42214743 4.70659069 1.38813943 6.99609375 3.28515625 C12.42583203 10.65408678 11.61090274 20.52357725 10.99609375 29.28515625 C10.1733027 34.41626263 8.78948044 38.15174669 5.80859375 42.41015625 C2.59430234 44.55301719 0.72467641 45.04036963 -3.078125 44.75390625 C-6.64232439 43.88635265 -7.9300997 42.24773703 -10.00390625 39.28515625 C-14.55171614 29.74942584 -14.59138191 17.90816249 -11.19140625 8.03515625 C-8.7902308 1.96321833 -6.85941589 -0.28947994 0 0 Z " fill="#070707" transform="translate(309.00390625,231.71484375)"/>
<path d="M0 0 C3.27059999 1.52628 4.54944817 2.94992356 5.96875 6.2578125 C9.5968892 17.78051386 9.19663768 29.99724245 4 41 C1.18429852 43.72861793 0.09587719 43.98782512 -3.9375 44.5 C-7.11970623 44.34621308 -8.03499744 43.97666837 -10.8125 42.125 C-17.24306259 32.93848201 -17.37572756 20.88110597 -15.49609375 10.11328125 C-14.45637292 6.51881781 -13.25471874 4.29838481 -10.8125 1.4375 C-7.05156477 -0.48475578 -4.13776461 -0.78055194 0 0 Z " fill="#060606" transform="translate(192,232)"/>
<path d="M0 0 C1.828125 2 1.828125 2 3.25 4 C3.72953125 4.66 4.2090625 5.32 4.703125 6 C8.10976314 11.25361063 8.10976314 11.25361063 7.6875 14.125 C7 16 7 16 6 18 C5.34 18 4.68 18 4 18 C3.04061307 16.49705948 2.15770376 14.94499493 1.3125 13.375 C-4.42390357 3.69140444 -11.14175094 0.47728359 -21.87939453 -2.46826172 C-35.65055348 -5.92135684 -49.58270505 -7.17905704 -63.75 -7.1875 C-64.84699219 -7.19974609 -65.94398438 -7.21199219 -67.07421875 -7.22460938 C-72.50846976 -7.23448983 -76.88887629 -7.03011923 -82 -5 C-84.71061275 -4.77336014 -87.27148292 -4.9059132 -90 -5 C-87.22316425 -9.46708359 -84.54370534 -11.02395791 -79.64404297 -12.38891602 C-54.51384226 -18.19693932 -21.19997622 -15.85416089 0 0 Z " fill="#F3F3F3" transform="translate(365,54)"/>
<path d="M0 0 C5.92626341 0.07021639 9.01501265 1.37613154 13.39453125 5.29296875 C25.31916162 17.7928132 25.31916162 17.7928132 25.625 24.0625 C24.2441813 27.05427384 23.43764634 27.18678137 20.4375 28.3125 C19.13111312 28.72806419 17.82005558 29.13014388 16.5 29.5 C16.2908445 34.62430976 17.05029232 38.60723658 18.5 43.5 C18.75 46.3125 18.75 46.3125 18.5 48.5 C17.84 49.16 17.18 49.82 16.5 50.5 C13.7674005 50.28980004 12.02652865 49.89002122 9.8125 48.25 C6.46877911 43.79170548 6.20387628 39.45876053 6.1875 34 C6.17074219 32.7109375 6.15398437 31.421875 6.13671875 30.09375 C6.51936436 26.30843856 7.29929926 24.54135771 9.5 21.5 C10.16 20.51 10.82 19.52 11.5 18.5 C8.24234772 13.61352157 4.66491832 11.84675852 -0.5 9.5 C-3.4375 8.0625 -3.4375 8.0625 -5.5 6.5 C-6.375 3.875 -6.375 3.875 -6.5 1.5 C-4.73439678 -0.26560322 -2.40291906 0.12135955 0 0 Z " fill="#090909" transform="translate(85.5,259.5)"/>
<path d="M0 0 C1.6406543 -0.0309375 1.6406543 -0.0309375 3.31445312 -0.0625 C12.57818893 -0.10658679 20.40135366 1.73988022 28.9375 5.25 C29.4325 8.715 29.4325 8.715 29.9375 12.25 C26.48634018 12.25 24.31158164 11.30276427 21.16796875 10.00390625 C0.2071442 2.91907414 -34.5752018 7.0519546 -54.50390625 16.39453125 C-56.36236011 17.3353943 -58.21326788 18.2911389 -60.0625 19.25 C-61.0525 19.25 -62.0425 19.25 -63.0625 19.25 C-62.76531707 16.47629263 -62.14580296 15.33607972 -60.1875 13.3125 C-52.50600566 8.24271373 -44.50599678 5.65638549 -35.625 3.5 C-34.76777344 3.28931885 -33.91054687 3.0786377 -33.02734375 2.86157227 C-22.13124073 0.35048961 -11.14318499 0.05271761 0 0 Z " fill="#F1F1F1" transform="translate(188.0625,42.75)"/>
<path d="M0 0 C1 1 1 1 1.375 3.375 C1 6 1 6 -1 7.5625 C-2.6510235 8.35361543 -4.30530103 9.13844344 -5.97265625 9.89453125 C-10.35422745 11.95018428 -13.4948752 13.64326121 -16 18 C-15.911305 20.74954511 -14.87395997 22.20670564 -13.4375 24.5625 C-10.97918151 30.44108771 -10.92006509 37.03790029 -13.3125 43 C-15.99264706 47.76470588 -15.99264706 47.76470588 -18 49 C-22.42105263 48.57894737 -22.42105263 48.57894737 -24 47 C-24.29386153 43.27775401 -24.14809171 42.22213757 -22 39 C-21.60041513 35.57982443 -21.4364652 32.12706959 -23 29 C-23.969375 29.020625 -24.93875 29.04125 -25.9375 29.0625 C-29 29 -29 29 -30 28 C-31.1114724 21.60903369 -28.55714346 17.88202108 -25.00390625 12.65625 C-22.28901854 9.05756843 -19.42210969 5.92965976 -16 3 C-15.2575 2.360625 -14.515 1.72125 -13.75 1.0625 C-9.31549552 -0.65083127 -4.699172 -0.40999487 0 0 Z " fill="#080808" transform="translate(419,263)"/>
<path d="M0 0 C0.9075 0.0825 1.815 0.165 2.75 0.25 C2.75 4.62836639 2.35903436 5.27098126 -0.125 8.625 C-0.75792969 9.49382812 -1.39085937 10.36265625 -2.04296875 11.2578125 C-2.77128906 12.24523437 -3.49960937 13.23265625 -4.25 14.25 C-5.54609346 16.0494258 -6.8355661 17.85344279 -8.12353516 19.65869141 C-8.97920213 20.85776988 -9.83685115 22.05543721 -10.69677734 23.25146484 C-13.29295738 26.86909277 -15.79951616 30.53202452 -18.25 34.25 C-20.1875 33.5625 -20.1875 33.5625 -22.25 32.25 C-23.34567541 29.17999159 -23.48844526 27.77774772 -22.1328125 24.77734375 C-21.55273438 23.92269531 -20.97265625 23.06804687 -20.375 22.1875 C-19.73175781 21.23617187 -19.08851563 20.28484375 -18.42578125 19.3046875 C-4.9465345 0.38050265 -4.9465345 0.38050265 0 0 Z " fill="#F5F5F5" transform="translate(307.25,54.75)"/>
<path d="M0 0 C-1.92996444 6.18267786 -4.79423995 11.57608222 -7.875 17.25 C-8.40480469 18.25546875 -8.93460938 19.2609375 -9.48046875 20.296875 C-9.99996094 21.2559375 -10.51945313 22.215 -11.0546875 23.203125 C-11.52374512 24.07614258 -11.99280273 24.94916016 -12.47607422 25.84863281 C-14.12949292 28.18280865 -15.36233019 28.98294743 -18 30 C-18.99 29.01 -19.98 28.02 -21 27 C-19.59867859 20.66485948 -17.24067262 15.17697897 -14.0625 9.5625 C-13.72669922 8.95970215 -13.39089844 8.3569043 -13.04492188 7.73583984 C-9.53090906 1.70866216 -7.04807734 -0.48055073 0 0 Z " fill="#F3F3F3" transform="translate(163,63)"/>
<path d="M0 0 C1.87075195 -0.02416992 1.87075195 -0.02416992 3.77929688 -0.04882812 C12.21704598 -0.05321593 19.81102306 1.05091439 27.9375 3.3125 C28.4325 5.2925 28.4325 5.2925 28.9375 7.3125 C23.52281023 9.50141714 20.64306805 9.32521658 15.24609375 7.13671875 C4.05912535 3.14272496 -9.45866667 5.32493972 -21.0625 6.3125 C-20.9375 4.4375 -20.9375 4.4375 -20.0625 2.3125 C-13.5080038 -0.44274331 -6.99207651 -0.01768355 0 0 Z " fill="#F2F2F2" transform="translate(241.0625,36.6875)"/>
<path d="M0 0 C1.76171875 0.7109375 1.76171875 0.7109375 2.48046875 2.375 C3.00650345 6.74401043 -0.43358985 9.68856026 -2.97265625 13 C-5.86794001 16.46435678 -8.51989807 19.13667222 -12.23828125 21.7109375 C-14.44140625 21.3515625 -14.44140625 21.3515625 -16.23828125 20.7109375 C-16.921875 18.9765625 -16.921875 18.9765625 -17.23828125 16.7109375 C-14.52230561 11.81297465 -6.01087988 -0.77627419 0 0 Z " fill="#0B0B0B" transform="translate(159.23828125,286.2890625)"/>
<path d="M0 0 C0.52012075 4.16723249 0.18980908 5.72376297 -2.23046875 9.24609375 C-3.20041821 10.32425526 -4.18671608 11.38789735 -5.1875 12.4375 C-5.67025391 12.99115234 -6.15300781 13.54480469 -6.65039062 14.11523438 C-8.10546875 15.68359375 -8.10546875 15.68359375 -11 18 C-13.86328125 17.84765625 -13.86328125 17.84765625 -16 17 C-16.33 16.01 -16.66 15.02 -17 14 C-15.453125 11.40625 -15.453125 11.40625 -13.25 8.5 C-12.53328125 7.5409375 -11.8165625 6.581875 -11.078125 5.59375 C-7.32730777 0.91227887 -6.21629667 -0.41441978 0 0 Z " fill="#070707" transform="translate(348,292)"/>
<path d="M0 0 C-0.49498968 4.31241009 -1.70795971 6.14487863 -4.875 9.0625 C-7.55968023 11.5639087 -9.87638706 14.00156538 -12 17 C-13.65 16.67 -15.3 16.34 -17 16 C-17 9.51335681 -14.31492952 6.50887162 -10.0078125 1.8203125 C-6.56708154 -1.29910506 -4.28418796 -1.04209977 0 0 Z " fill="#060606" transform="translate(332,291)"/>
<path d="M0 0 C2.6875 0.3125 2.6875 0.3125 5 1 C4.55865854 6.10908847 3.15314648 8.57459324 -0.3125 12.3125 C-1.48232422 13.60607422 -1.48232422 13.60607422 -2.67578125 14.92578125 C-4.92266706 16.93098523 -6.06424917 17.64394784 -9 18 C-9.66 16.35 -10.32 14.7 -11 13 C-9.73147606 11.39400651 -8.460089 9.79027425 -7.1875 8.1875 C-6.47980469 7.29417969 -5.77210938 6.40085937 -5.04296875 5.48046875 C-1.63920208 1.34778838 -1.63920208 1.34778838 0 0 Z " fill="#101010" transform="translate(173,291)"/>
<path d="M0 0 C2.55013219 3.09870714 4.02272542 6.15340442 5.5 9.875 C6.83276548 13.19883633 8.15764116 16.28900879 9.875 19.4375 C11.19593782 22.44630282 10.99743537 23.91701795 10 27 C8.68 27.33 7.36 27.66 6 28 C1.95421585 18.5116729 -1.0767221 10.52794945 0 0 Z " fill="#ECECEC" transform="translate(124,87)"/>
<path d="M0 0 C0.99 0.33 1.98 0.66 3 1 C2.3900874 5.98844309 1.36525565 10.60155346 -0.0625 15.4375 C-0.42472656 16.67371094 -0.78695313 17.90992188 -1.16015625 19.18359375 C-1.43730469 20.11300781 -1.71445312 21.04242188 -2 22 C-3.9375 21.6875 -3.9375 21.6875 -6 21 C-7.10347677 17.68956968 -6.95268491 17.14639374 -5.8203125 14.0234375 C-5.55089844 13.270625 -5.28148437 12.5178125 -5.00390625 11.7421875 C-4.71386719 10.96101563 -4.42382812 10.17984375 -4.125 9.375 C-3.84269531 8.58609375 -3.56039063 7.7971875 -3.26953125 6.984375 C-1.15677645 1.15677645 -1.15677645 1.15677645 0 0 Z " fill="#EAEAEA" transform="translate(370,84)"/>
<path d="" fill="#000000" transform="translate(0,0)"/>
<path d="" fill="#000000" transform="translate(0,0)"/>
</svg>
