<svg id="portrait-notion" xmlns="http://www.w3.org/2000/svg" xmlns:xlink="http://www.w3.org/1999/xlink"
    viewBox="0 0 500 500" shape-rendering="geometricPrecision" text-rendering="geometricPrecision"
    project-id="0e466087890047ccaa42926acd70e0ef" export-id="df8852728b3f49e1a24fec2ac17dcf78" cached="false">
    <path id="portrait-notion-s-path1"
        d="M0,0c1.479078.007976,1.479078.007976,2.988037.016113c7.500531.097965,14.831116.371116,21.851807,3.2417C27.360627,4.244375,29.725708,4.728421,32.375,5.25c5.179153,1.796519,10.555646,3.740807,15,7c0,.66,0,1.32,0,2c.786973.108281.786973.108281,1.589844.21875C52.38906,15.578707,55.055669,17.655891,57.9375,19.75c5.530495,4.364093,5.530495,4.364093,12.25,5.082031c1.051875-.19207,2.10375-.38414,3.1875-.582031c15.82014-1.283283,28.517971,3.324718,40.726563,13.207031c8.694803,7.527802,15.516203,15.778279,16.519531,27.722657.00336,2.372216-.061457,4.70593-.246094,7.070312c1.324512-.104414,1.324512-.104414,2.675781-.210937C145.195045,71.491201,151.876628,75.007926,160.875,82.875c2.817619,2.607212,5.383625,5.159738,7.5,8.375c0,.66,0,1.32,0,2c.66.33,1.32.66,2,1c8.056618,14.025691,10.444569,33.931664,7.480469,49.777344-.199805.712851-.39961,1.425703-.605469,2.160156-1.782006,6.466135.076845,12.724307,2.75,18.6875c2.611055,2.611055,4.455654,3.397883,8.152344,3.632813c3.414999-.396116,6.151994-1.809106,9.144531-3.445313c2.472437-.966667,3.622006-.697588,6.078125.1875c1.090836,5.345095,1.129514,8.942405-1,14-2.102524,2.912931-4.464946,5.459752-7,8-.525937.537539-1.051875,1.075078-1.59375,1.628906-5.069558,4.758923-11.169964,7.437821-17.40625,10.371094-2.002315.995357-4.002976,1.99407-6,3c1.303242.073477,1.303242.073477,2.632813.148438c1.152421.074765,2.304843.149531,3.492187.226562c1.136953.069609,2.273906.139219,3.445313.210938c3.383623.408501,6.245811,1.223738,9.429687,2.414062c0,1.65,0,3.3,0,5-.66,0-1.32,0-2,0-.242344.607148-.484687,1.214297-.734375,1.839844-1.53006,2.611491-2.845445,3.346696-5.515625,4.722656-.800508.417656-1.601016.835313-2.425781,1.265625-.766992.386719-1.533985.773438-2.324219,1.171875-1.134375.598125-2.26875,1.19625-3.4375,1.8125-2.5625,1.1875-2.5625,1.1875-4.5625,1.1875-.193359.59168-.386719,1.183359-.585937,1.792969-1.35821,4.121696-2.734569,8.202083-4.414063,12.207031c1.98.66,3.96,1.32,6,2c0,.66,0,1.32,0,2c.86625.340313.86625.340313,1.75.6875c6.430044,3.750859,9.261243,11.49349,11.25,18.3125.622154,5.127996.612649,10.153678.5,15.3125.002578,1.318066.005156,2.636133.007813,3.994141-.06722,6.658067-.297801,11.820779-3.507813,17.693359-.691405,2.778886-.691405,2.778886-1,5-.66,0-1.32,0-2,0c0,1.65,0,3.3,0,5-.66,0-1.32,0-2,0-.162422,1.08668-.162422,1.08668-.328125,2.195313C171.418227,319.418389,161.919136,329.458507,153.375,336.25c-.711562.773438-.711562.773438-1.4375,1.5625-7.746882,7.127131-20.808294,7.708604-30.785156,8.226563-2.394535.181863-4.480631.538997-6.777344,1.210937-.10957.640664-.219141,1.281328-.332031,1.941406-.992771,5.41585-2.414336,10.010456-4.667969,15.058594-.495417,1.682801-.97359,3.370742-1.4375,5.0625-1.220508,4.239661-2.969036,7.340115-5.5625,10.9375-.464062,1.268438-.464062,1.268438-.9375,2.5625-1.106766,2.53905-2.434906,3.978037-4.4375,5.855469-2.16378,2.106564-4.166538,4.338365-6.1875,6.582031-1.115684,1.2375-1.115684,1.2375-2.253906,2.5-1.473786,1.687339-2.898175,3.418938-4.273438,5.1875C82.375,405.25,82.375,405.25,79.375,407.25c-.431477,2.059799-.431477,2.059799-.328125,4.429688.005156.877851.010313,1.755703.015625,2.660156.030938,1.378652.030938,1.378652.0625,2.785156.005156.911367.010313,1.822734.015625,2.761719-.003022,4.730595-.003022,4.730595.743164,9.376465.552336,2.234052.588533,4.172003.553711,6.471191-.007734.853359-.015469,1.706719-.023437,2.585938-.025814,1.770836-.051852,3.54167-.078125,5.3125-.047936,5.320891.297051,10.34891,1.039062,15.617187.074037,2.332158.095159,4.668608,0,7-1,1-1,1-4.8125,1.375-3.67233.409481-5.269948,1.345662-8.1875,3.625-21.778863,6.572984-47.394143,4.319249-69.940918,4.260742-4.410751-.011358-8.82126-.004631-13.232002.006874-16.751767.037109-33.464277-.087962-50.186455-1.158241-1.229544-.077485-2.459088-.154969-3.725891-.234802-18.470455-1.325291-18.470455-1.325291-25.914734-5.874573-2.331994-.079051-4.668326-.087988-7,0-.66-.33-1.32-.66-2-1-.02684-2.979226-.04676-5.958213-.0625-8.9375-.008379-.850137-.016758-1.700273-.025391-2.576172-.003222-.808887-.006445-1.617773-.009765-2.451172-.007855-1.123297-.007855-1.123297-.015869-2.269287C-103.625,449.25,-103.625,449.25,-102.625,448.25c.531028-5.671874.770446-11.351942.99707-17.043213.084615-1.914323.187519-3.827933.309571-5.740234.988379-11.17722.988379-11.17722-2.189209-21.610108-2.237093-2.483064-4.515439-4.519359-7.117432-6.606445-1.299036-1.433268-2.57507-2.888218-3.8125-4.375-1.718281-1.982935-3.3997-3.824717-5.3125-5.625-4.772287-5.09044-9.875-12.881965-9.875-20-.66,0-1.32,0-2,0-.193359-.652266-.386719-1.304531-.585937-1.976562-.260391-.873985-.520782-1.747969-.789063-2.648438-.270703-.910078-.541406-1.820156-.820312-2.757812-.632152-2.056027-1.331224-4.091489-2.054688-6.117188-.75-2.5-.75-2.5.25-4.5-.66,0-1.32,0-2,0-.33-1.98-.66-3.96-1-6-.727031.023203-1.454062.046406-2.203125.070313-10.374965.186217-20.003517-.144354-28.796875-6.070313-.66-.33-1.32-.66-2-1c0-.66,0-1.32,0-2-.835312-.402187-.835312-.402187-1.6875-.8125-4.853571-2.492374-8.681339-5.037602-12.3125-9.1875c0-.99,0-1.98,0-3-.99-.33-1.98-.66-3-1-.372104-1.323037-.706302-2.657379-1-4-.66-.33-1.32-.66-2-1-6.361474-8.092488-9.01675-18.083748-11-28-.168223-.586362-.336445-1.172725-.509766-1.776855-1.037997-4.707172-.761235-9.610625-.802734-14.410645-.029004-1.098926-.058008-2.197852-.087891-3.330078-.055575-7.169246,1.012331-12.190187,4.400391-18.482422.309375-.86625.61875-1.7325.9375-2.625c2.043445-4.5677,4.35043-8.499942,8.875-10.8125.721875-.185625,1.44375-.37125,2.1875-.5625.851997-4.733319.829215-8.301116,0-13-.090274-3.335117-.059328-6.664469,0-10-.719297-.250078-1.438594-.500156-2.179687-.757812-3.083601-1.358151-5.330986-2.998544-7.945313-5.117188-1.272305-1.01707-1.272305-1.01707-2.570312-2.054687-2.125393-1.909252-3.767414-3.668951-5.304688-6.070313c0-.66,0-1.32,0-2-.66,0-1.32,0-2,0c0-.99,0-1.98,0-3-.66,0-1.32,0-2,0-2.195992-5.215481-2.684309-10.404771-2-16c2-2,2-2,4.460938-2.160156.96164.032226,1.923281.064453,2.914062.097656c3.43364.106434,6.328258.070272,9.625-.9375-2.347098-3.520647-3.269955-3.629131-7.1875-4.8125-10.20696-3.526525-18.783482-12.709736-23.8125-22.1875-.437855-2.29372-.681147-4.521535-.824219-6.851562-.175867-2.149487-.630446-4.066642-1.175781-6.148438-.296766-3.857953.306941-6.519823,2-10c.99-.99.99-.99,2-2c2.584281.27203,4.536617.734058,6.796875,2.03125c5.299754,2.330388,12.2206,1.464381,17.703125.09375.825-.37125,1.65-.7425,2.5-1.125.680625-.2475,1.36125-.495,2.0625-.75c2.941157-1.897521,4.740262-4.532363,6.9375-7.25.66-.33,1.32-.66,2-1c2.484923-4.328575,4.193033-8.358119,5.4375-13.1875c2.988825-11.526055,7.446065-22.213953,14.5625-31.8125.66,0,1.32,0,2,0c0-.66,0-1.32,0-2c6.717016-7.327654,14.749892-13.499928,23-19c.384151-2.503279.384151-2.503279.222656-5.417969-.018691-1.089902-.037383-2.179804-.05664-3.302734-.034161-1.144043-.068321-2.288086-.103516-3.466797-.366761-13.616995-.366761-13.616995,1.9375-19.8125.66,0,1.32,0,2,0c0-1.32,0-2.64,0-4c4.136265-4.338034,6.825197-5.801638,13-6c2.775007.923806,5.216753,2.301769,7.75,3.75c5.644072,3.039873,10.918077,5.341963,17.210938,6.777344C-96.625,17.25,-96.625,17.25,-94.625,18.25c7.319241.939825,13.988434,1.664395,21-1c1.350245-.34888,2.70475-.681578,4.0625-1c7.050865-1.669549,13.80502-4.393436,20.597656-6.878906C-46.154441,8.427719,-43.530917,7.777492,-40.625,7.25c1.835121-.472274,3.668357-.951913,5.5-1.4375c5.496329-1.39956,10.968489-2.303753,16.589844-3.035156c2.865684-.390096,2.865684-.390096,5.125-1.570313C-9.007223,-0.305898,-4.620763,-0.044048,0,0ZM-192.625,171.25c0,.66,0,1.32,0,2c.66-.33,1.32-.66,2-1-.66-.33-1.32-.66-2-1Zm308,173c-.33.66-.66,1.32-1,2c.66,0,1.32,0,2,0-.33-.66-.66-1.32-1-2Z"
        transform="translate(259.625 1.75)" fill="#010101" />
    <path id="portrait-notion-u-face-bg"
        d="M0,0C4.43933,4.059278,7.501395,8.544572,10.6875,13.625c.485332.763125.970664,1.52625,1.470703,2.3125.897774,1.411672,1.79288,2.825047,2.684326,4.240723C15.872808,21.799809,16.934309,23.401463,18,25c5.693716.910995,8.738848-.69197,13.203125-3.90625C33,20,33,20,36,20c1.666667,1.666667,3.333333,3.333333,5,5c11.384974,8.487905,25.377551,12.361756,39.421875,12.046875.836259-.018742,1.672518-.037484,2.534119-.056793c3.480284-.092317,6.958734-.204282,10.437072-.353363c16.60185-.666667,16.60185-.666667,21.583497,3.570312C116.667969,42.145996,116.667969,42.145996,118,44c.693516.834023,1.387031,1.668047,2.101563,2.527344c7.454439,11.793306,11.847026,24.201945,12.144531,38.21875.032871,1.249746.065742,2.499492.099609,3.787109.061104,2.598872.118408,5.197835.171875,7.796875.20918,7.660732.772105,14.164566,3.488281,21.31958c2.942407,7.99753,3.58354,14.984589,3.431641,23.475342-.011038,1.306787-.022075,2.613574-.033447,3.959961-.131631,9.534659-1.008877,18.914721-2.267823,28.364746-.985835,7.535015-1.403615,14.956001-1.57373,22.550293-.35266,13.228223-2.230304,25.99093-4.5625,39-.196421,1.130991-.392842,2.261982-.595215,3.427246C124.301122,273.386384,112.751731,300.500537,83.75,322.0625C81.842078,323.387679,79.924191,324.698556,78,326c-1.37391.956727-2.74759,1.913784-4.121094,2.871094-25.657471,17.69279-51.546969,26.474428-83.105468,21.445312C-13.263238,349.499884,-17.100725,348.32334,-21,347c-1.858184-.583945-1.858184-.583945-3.753906-1.179687C-35.458646,342.047422,-44.053067,335.84551,-53,329c-.971953-.738633-1.943906-1.477266-2.945312-2.238281C-61.879058,322.120748,-67.507001,317.152108,-73,312c-.821052-.762078-.821052-.762078-1.658691-1.539551-21.65456-20.242435-29.931982-43.779332-33.973633-72.832519-.248918-1.779121-.505998-3.557115-.770508-5.333985-1.993669-13.430786-3.00355-26.679656-3.130859-40.263916-.112865-6.677843-.735702-12.947269-1.978028-19.48706-1.837717-9.940065-1.909038-19.755856-1.824463-29.840088.023793-3.029483.020507-6.058092.013916-9.087647.01428-9.130988.129716-17.979774,1.895752-26.964843.480316-2.984718.475688-5.818931.426514-8.837891.467157-6.463752,3.619011-9.201945,8.300781-13.382812C-92.376316,72.437147,-83.881275,55.661524,-82,38c1.016466.039276,1.016466.039276,2.053467.079346C-58.703315,38.786796,-37.941818,37.614221,-20,25c1.034473-1.36125,1.034473-1.36125,2.089844-2.75C-16,20,-16,20,-13.589844,19.5c4.126249.796621,7.231088,3.010694,10.773438,5.1875C0.359434,26.167503,2.537834,26.244748,6,26c.663487-7.132486-1.74875-13.303763-4-20-.373828-1.122773-.747656-2.245547-1.132812-3.402344C0.581016,1.74043,0.294844,0.883203,0,0Z"
        transform="translate(238 87)" fill="#fbfbfb" />
    <path id="portrait-notion-u-neck-bg"
        d="M0,0c.66,0,1.32,0,2,0c.025056.785361.050112,1.570723.075928,2.379883C2.193321,6.003364,2.315386,9.626675,2.4375,13.25c.039316,1.234922.078633,2.469844.119141,3.742188C2.843973,31.732289,2.843973,31.732289,6,46c0,2.6875,0,2.6875-1,5-4.503502,2.762422-8.760668,3.633803-13.9375,4.125-.658066.073477-1.316133.146953-1.994141.222656-13.38505,1.422084-26.715349,1.814242-40.162109,1.820313-1.720337.003229-3.440674.006595-5.161011.010086-3.593634.005946-7.187245.007845-10.780884.007248-3.614309-.000081-7.22849.006768-10.842773.020508-17.864394.066789-35.693701.054786-53.527832-1.09253-1.226583-.077731-2.453167-.155463-3.716919-.23555C-155.160866,54.429688,-155.160866,54.429688,-161,50c.467715-3.196054,1.053548-6.1724,2.013184-9.261963c1.000513-3.789922,1.300174-7.073457,1.400879-10.984131.019366-.655976.038732-1.311953.058685-1.987808.059141-2.067739.105914-4.135536.152252-6.203598.03824-1.413434.077295-2.826846.117188-4.240234.095347-3.440555.179615-6.881274.257812-10.322266c4.767578,4.745605,4.767578,4.745605,6.859375,7.035156c15.038303,16.125784,36.514042,28.909029,58.791016,30.107422C-72.927512,44.760431,-58.563986,42.560299,-42,34c.619878-.310342,1.239756-.620684,1.878418-.94043C-25.437334,25.653475,-11.909745,15.047514,-1.6875,2.0625C-1.130625,1.381875,-0.57375,0.70125,0,0Z"
        transform="translate(326 420)" fill="#fafafa" />
    <path id="portrait-notion-u-left-ear-bg"
        d="M0,0C5.286825,2.59019,8.444755,7.194601,10.871094,12.417969c1.240689,3.735437,2.255089,7.526173,3.176269,11.352051.924849,3.77407,1.908465,6.94725,3.870606,10.312011c3.050688,5.788029,3.072219,12.234944,3.578125,18.648438.117224,1.33755.236132,2.674953.356689,4.012207.237893,2.65286.467922,5.305986.693604,7.959961.440247,5.037358.96655,10.063481,1.512207,15.090332.160367,1.50779.320549,3.0156.480469,4.523437.10957,1.023516.21914,2.047032.332031,3.101563-14.737066.822789-22.993557-1.742546-34.460938-11.5625-12.475964-11.976926-17.323763-28.320439-17.921386-45.136475-.214927-10.910829,1.28833-18.222066,7.444824-27.363525C-14.767707,-1.94323,-6.965799,-1.904411,0,0Z"
        transform="translate(95.1289 244.582)" fill="#f9f9f9" />
    <path id="portrait-notion-u-right-ear-bg"
        d="M0,0C5.321094,4.560938,8.723617,9.062017,9.407959,16.162354C10.278377,35.372286,8.002429,54.076483,-5.125,69.125c-16.672391,17.39971-16.672391,17.39971-29.144531,17.835938-7.166057.102518-7.166057.102518-9.542969-1.085938.117546-.674824.235093-1.349648.356201-2.044922c1.014594-5.941697,1.934759-11.890111,2.75708-17.861328c4.298148-31.022899,4.298148-31.022899,8.886719-46.09375.239363-.787778.478726-1.575557.725342-2.387207C-28.612681,9.685073,-25.329946,5.010464,-18.0625,0.9375C-12.030798,-1.81907,-6.227109,-2.490844,0,0Z"
        transform="translate(420.812 249.125)" fill="#f8f8f8" />
    <path id="portrait-notion-s-path2"
        d="M0,0c1.937823.012085,1.937823.012085,3.914795.024414c12.96892.268083,29.842779,1.941606,40.101807,11.05127C48.643304,15.917027,52.112148,22.278227,54.3125,28.5625c-.339844,2.867188-.339844,2.867188-1,5-4.66918-.318353-8.322424-1.452235-12.625-3.3125-12.310262-5.315445-23.66999-7.945672-37.023437-7.679687-1.597651.017489-3.195307.0344-4.792969.050781-2.482118.031119-4.963909.066966-7.445801.112793-2.420453.042214-4.840512.065718-7.26123.086426-.743739.01862-1.487478.037241-2.253754.056427-5.085384.025404-5.085384.025404-7.584625-1.631135C-26.6875,19.5625,-26.6875,19.5625,-26.75,16.375c1.718076-6.16486,5.504231-11.538976,10.993896-15.016357C-10.797656,-0.549713,-5.232532,-0.060333,0,0Z"
        transform="translate(300.688 183.438)" fill="#050505" />
    <path id="portrait-notion-s-path3"
        d="M0,0c.752329-.013696,1.504658-.027393,2.279785-.041504C9.077253,0.0143,15.379079,1.364782,20.6875,5.75c4.980643,6.152559,4.980643,6.152559,5.4375,10.8125-.3125,2.8125-.3125,2.8125-2.3125,4.8125-2.938965.179443-2.938965.179443-6.710937.089844-1.39452-.023518-2.789052-.046274-4.183594-.06836-.731704-.014582-1.463408-.029165-2.217285-.044189-18.105491-.31836-35.132319-.464329-51.425293,8.417236-3.045594,1.645775-4.929857,2.653099-8.435547,2.339844-.669024-.242344-1.338047-.484687-2.027344-.734375.830321-8.313723,4.142754-16.07713,10.066406-22.101562C-29.876239,0.610419,-13.70939,0.123657,0,0Z"
        transform="translate(192.188 184.625)" fill="#040404" />
    <path id="portrait-notion-s-path4"
        d="M0,0c5.131756.798273,8.63346,3.963701,11.8125,7.9375c1.186316,2.965791.9453,4.492227,0,7.5-2.3125.6875-2.3125.6875-5,1-1.667969-1.480469-1.667969-1.480469-3-3-.53625.375117-1.0725.750234-1.625,1.136719-19.142108,12.499041-41.328747,12.313856-63.375,11.863281-.825967-.014019-1.651934-.028037-2.50293-.04248-11.055714-.237153-25.085888-.932172-33.49707-8.95752-.875-2.6875-.875-2.6875-1-5c.33-.33.66-.66,1-1c6.271374.632673,12.139531,2.34823,18.183594,4.0625c23.901861,5.871491,54.707866,3.901898,76.816406-7.0625c0-2.462788-.854529-3.852241-2-6c2-2,2-2,4.1875-2.4375Z"
        transform="translate(299.188 343.562)" fill="#080808" />
    <path id="portrait-notion-s-path5"
        d="M0,0c2.625.375,2.625.375,5,1c5.672594,18.226695-1.993332,41.132428-6,59-.670124,3.214081-.670124,3.214081,0,6c4.390384,4.390384,9.2775,4.736726,15.292969,5.410156C17.214134,72.046658,18.297543,72.570453,20,75c-.1875,2.625-.1875,2.625-1,5-5.024053,2.512027-11.846711,1.637198-17.0625.09375C-4.535691,77.34968,-8.801218,74.397563,-12,68c-.491982-7.736816,1.035671-14.572582,2.875-22.0625.269414-1.132441.538828-2.264883.816406-3.431641c2.041348-8.548764,2.041348-8.548764,2.915039-11.677734c1.898514-6.833239,2.134584-13.818567,2.604493-20.867187.074765-.995157.149531-1.990313.226562-3.015625.060586-.902183.121172-1.804366.183594-2.733887C-2,2,-2,2,0,0Z"
        transform="translate(235 246)" fill="#090909" />
    <path id="portrait-notion-s-path6"
        d="M0,0c2.955032.422147,4.706591,1.388139,6.996094,3.285156c5.429738,7.368931,4.614809,17.238421,4,26-.822791,5.131107-2.206614,8.866591-5.1875,13.125-3.214292,2.142861-5.083918,2.630214-8.886719,2.34375-3.564199-.867553-4.851975-2.506169-6.925781-5.46875-4.54781-9.53573-4.587476-21.376994-1.1875-31.25C-8.790231,1.963218,-6.859416,-0.28948,0,0Z"
        transform="translate(309.004 231.715)" fill="#070707" />
    <path id="portrait-notion-s-path7"
        d="M0,0C3.2706,1.52628,4.549448,2.949924,5.96875,6.257813C9.596889,17.780514,9.196638,29.997242,4,41c-2.815701,2.728618-3.904123,2.987825-7.9375,3.5-3.182206-.153787-4.097497-.523332-6.875-2.375-6.430563-9.186518-6.563228-21.243894-4.683594-32.011719c1.039721-3.594463,2.241375-5.814896,4.683594-8.675781C-7.051565,-0.484756,-4.137765,-0.780552,0,0Z"
        transform="translate(192 232)" fill="#060606" />
    <path id="portrait-notion-u-top-glasses-right-bg"
        d="M0,0C1.828125,2,1.828125,2,3.25,4c.479531.66.959063,1.32,1.453125,2c3.406638,5.253611,3.406638,5.253611,2.984375,8.125C7,16,7,16,6,18c-.66,0-1.32,0-2,0-.959387-1.502941-1.842296-3.055005-2.6875-4.625-5.736404-9.683596-12.454251-12.897716-23.191895-15.843262-13.771158-3.453095-27.70331-4.710795-41.870605-4.719238-1.096992-.012246-2.193984-.024492-3.324219-.037109C-72.50847,-7.23449,-76.888876,-7.030119,-82,-5c-2.710613.22664-5.271483.094087-8,0c2.776836-4.467084,5.456295-6.023958,10.355957-7.388916C-54.513842,-18.196939,-21.199976,-15.854161,0,0Z"
        transform="translate(365 54)" fill="#f3f3f3" />
    <path id="portrait-notion-s-path8"
        d="M0,0c5.926263.070216,9.015013,1.376132,13.394531,5.292969C25.319162,17.792813,25.319162,17.792813,25.625,24.0625c-1.380819,2.991774-2.187354,3.124281-5.1875,4.25-1.306387.415564-2.617444.817644-3.9375,1.1875-.209156,5.12431.550292,9.107237,2,14c.25,2.8125.25,2.8125,0,5-.66.66-1.32,1.32-2,2-2.732599-.2102-4.473471-.609979-6.6875-2.25C6.468779,43.791705,6.203876,39.458761,6.1875,34c-.016758-1.289062-.033516-2.578125-.050781-3.90625C6.519364,26.308439,7.299299,24.541358,9.5,21.5c.66-.99,1.32-1.98,2-3-3.257652-4.886478-6.835082-6.653241-12-9-2.9375-1.4375-2.9375-1.4375-5-3-.875-2.625-.875-2.625-1-5C-4.734397,-0.265603,-2.402919,0.12136,0,0Z"
        transform="translate(85.5 259.5)" fill="#090909" />
    <path id="portrait-notion-u-top-glasses-left-bg"
        d="M0,0c1.640654-.030937,1.640654-.030937,3.314453-.0625C12.578189,-0.106587,20.401354,1.73988,28.9375,5.25c.495,3.465.495,3.465,1,7-3.45116,0-5.625918-.947236-8.769531-2.246094-20.960825-7.084832-55.743171-2.951951-75.671875,6.390625-1.858454.940863-3.709362,1.896608-5.558594,2.855469-.99,0-1.98,0-3,0c.297183-2.773707.916697-3.91392,2.875-5.9375C-52.506006,8.242714,-44.505997,5.656385,-35.625,3.5c.857227-.210681,1.714453-.421362,2.597656-.638428C-22.131241,0.35049,-11.143185,0.052718,0,0Z"
        transform="translate(188.062 42.75)" fill="#f1f1f1" />
    <path id="portrait-notion-s-path9"
        d="M0,0C1,1,1,1,1.375,3.375C1,6,1,6,-1,7.5625c-1.651023.791115-3.305301,1.575943-4.972656,2.332031C-10.354227,11.950184,-13.494875,13.643261,-16,18c.088695,2.749545,1.12604,4.206706,2.5625,6.5625c2.458318,5.878588,2.517435,12.4754.125,18.4375-2.680147,4.764706-2.680147,4.764706-4.6875,6-4.421053-.421053-4.421053-.421053-6-2-.293862-3.722246-.148092-4.777862,2-8c.399585-3.420176.563535-6.87293-1-10-.969375.020625-1.93875.04125-2.9375.0625C-29,29,-29,29,-30,28c-1.111472-6.390966,1.442857-10.117979,4.996094-15.34375C-22.289019,9.057568,-19.42211,5.92966,-16,3c.7425-.639375,1.485-1.27875,2.25-1.9375C-9.315496,-0.650831,-4.699172,-0.409995,0,0Z"
        transform="translate(419 263)" fill="#080808" />
    <path id="portrait-notion-u-glare-glasses-right-bg"
        d="M0,0c.9075.0825,1.815.165,2.75.25c0,4.378366-.390966,5.020981-2.875,8.375-.63293.868828-1.265859,1.737656-1.917969,2.632813-.72832.987421-1.45664,1.974843-2.207031,2.992187-1.296093,1.799426-2.585566,3.603443-3.873535,5.408691-.855667,1.199079-1.713316,2.396746-2.573242,3.592774-2.59618,3.617628-5.102739,7.28056-7.553223,10.998535-1.9375-.6875-1.9375-.6875-4-2-1.095675-3.070008-1.238445-4.472252.117188-7.472656.580078-.854649,1.160156-1.709297,1.757812-2.589844.643242-.951328,1.286484-1.902656,1.949219-2.882812C-4.946534,0.380503,-4.946534,0.380503,0,0Z"
        transform="translate(307.25 54.75)" fill="#f5f5f5" />
    <path id="portrait-notion-u-glare-glasses-left-bg"
        d="M0,0c-1.929964,6.182678-4.79424,11.576082-7.875,17.25-.529805,1.005469-1.059609,2.010938-1.605469,3.046875-.519492.959063-1.038984,1.918125-1.574218,2.90625-.469058.873018-.938116,1.746035-1.421387,2.645508C-14.129493,28.182809,-15.36233,28.982947,-18,30c-.99-.99-1.98-1.98-3-3c1.401321-6.335141,3.759327-11.823021,6.9375-17.4375.335801-.602798.671602-1.205596,1.017578-1.82666C-9.530909,1.708662,-7.048077,-0.480551,0,0Z"
        transform="translate(163 63)" fill="#f3f3f3" />
    <path id="portrait-notion-u-nose-bridge-glasses-bg"
        d="M0,0c1.870752-.02417,1.870752-.02417,3.779297-.048828C12.217046,-0.053216,19.811023,1.050914,27.9375,3.3125c.495,1.98.495,1.98,1,4-5.41469,2.188917-8.294432,2.012717-13.691406-.175781C4.059125,3.142725,-9.458667,5.32494,-21.0625,6.3125c.125-1.875.125-1.875,1-4C-13.508004,-0.442743,-6.992077,-0.017684,0,0Z"
        transform="translate(241.062 36.6875)" fill="#f2f2f2" />
    <path id="portrait-notion-s-path10"
        d="M0,0c1.761719.710938,1.761719.710938,2.480469,2.375C3.006503,6.74401,-0.43359,9.68856,-2.972656,13c-2.895284,3.464357-5.547242,6.136672-9.265625,8.710938-2.203125-.359375-2.203125-.359375-4-1-.683594-1.734375-.683594-1.734375-1-4C-14.522306,11.812975,-6.01088,-0.776274,0,0Z"
        transform="translate(159.238 286.289)" fill="#0b0b0b" />
    <path id="portrait-notion-s-path11"
        d="M0,0c.520121,4.167232.189809,5.723763-2.230469,9.246094-.969949,1.078161-1.956247,2.141803-2.957031,3.191406-.482754.553652-.965508,1.107305-1.462891,1.677734C-8.105469,15.683594,-8.105469,15.683594,-11,18c-2.863281-.152344-2.863281-.152344-5-1-.33-.99-.66-1.98-1-3c1.546875-2.59375,1.546875-2.59375,3.75-5.5.716719-.959062,1.433438-1.918125,2.171875-2.90625C-7.327308,0.912279,-6.216297,-0.41442,0,0Z"
        transform="translate(348 292)" fill="#070707" />
    <path id="portrait-notion-s-path12"
        d="M0,0c-.49499,4.31241-1.70796,6.144879-4.875,9.0625C-7.55968,11.563909,-9.876387,14.001565,-12,17c-1.65-.33-3.3-.66-5-1c0-6.486643,2.68507-9.491128,6.992188-14.179687C-6.567082,-1.299105,-4.284188,-1.0421,0,0Z"
        transform="translate(332 291)" fill="#060606" />
    <path id="portrait-notion-s-path13"
        d="M0,0c2.6875.3125,2.6875.3125,5,1-.441341,5.109088-1.846854,7.574593-5.3125,11.3125-1.169824,1.293574-1.169824,1.293574-2.363281,2.613281C-4.922667,16.930985,-6.064249,17.643948,-9,18c-.66-1.65-1.32-3.3-2-5c1.268524-1.605993,2.539911-3.209726,3.8125-4.8125.707695-.89332,1.415391-1.786641,2.144531-2.707031C-1.639202,1.347788,-1.639202,1.347788,0,0Z"
        transform="translate(173 291)" fill="#101010" />
    <path id="portrait-notion-u-side-glasses-left-bg"
        d="M0,0C2.550132,3.098707,4.022725,6.153404,5.5,9.875c1.332765,3.323836,2.657641,6.414009,4.375,9.5625C11.195938,22.446303,10.997435,23.917018,10,27c-1.32.33-2.64.66-4,1-4.045784-9.488327-7.076722-17.472051-6-28Z"
        transform="translate(124 87)" fill="#ececec" />
    <path id="portrait-notion-u-side-glasses-left-bg2"
        d="M0,0c.99.33,1.98.66,3,1-.609913,4.988443-1.634744,9.601553-3.0625,14.4375-.362227,1.236211-.724453,2.472422-1.097656,3.746094C-1.437305,20.113008,-1.714453,21.042422,-2,22c-1.9375-.3125-1.9375-.3125-4-1-1.103477-3.31043-.952685-3.853606.179688-6.976562.269414-.752813.538828-1.505625.816406-2.28125.290039-.781172.580078-1.562344.878906-2.367188.282305-.788906.564609-1.577812.855469-2.390625C-1.156776,1.156776,-1.156776,1.156776,0,0Z"
        transform="translate(370 84)" fill="#eaeaea" />
    <path id="portrait-notion-s-path14" d="" />
    <path id="portrait-notion-s-path15" d="" />
</svg>